<?xml version="1.0" encoding="UTF-8"?>
<!DOCTYPE svg PUBLIC "-//W3C//DTD SVG 1.1//EN" "http://www.w3.org/Graphics/SVG/1.1/DTD/svg11.dtd">
<svg width="102mm" height="102mm" viewBox="0 0 10200 10200" version="1.1" xmlns="http://www.w3.org/2000/svg" xmlns:xlink="http://www.w3.org/1999/xlink" stroke-width="28.222" stroke-linejoin="round" xml:space="preserve">
 <path fill="rgb(255,255,255)" stroke="none" d="M 5067,10147 L -13,10147 -13,-13 10147,-13 10147,10147 5067,10147 Z"/>
 <path fill="rgb(180,228,150)" stroke="none" d="M 5024,2016 C 4613,2016 4205,2080 3814,2207 3424,2334 3056,2521 2723,2763 2391,3004 2099,3296 1858,3628 1616,3961 1429,4329 1302,4719 1175,5109 1111,5517 1111,5927 1111,6338 1175,6746 1302,7137 1429,7527 1616,7895 1858,8228 2099,8560 2391,8852 2723,9093 2930,9244 3152,9373 3384,9480 L 3931,8296 C 3776,8225 3628,8138 3490,8038 3269,7877 3074,7682 2913,7461 2752,7239 2627,6994 2543,6734 2458,6473 2415,6201 2415,5928 2415,5654 2458,5382 2543,5121 2627,4862 2752,4617 2913,4395 3074,4174 3269,3979 3490,3818 3712,3657 3957,3532 4217,3448 4478,3363 4750,3320 5024,3320 L 5024,2016 Z"/>
 <path fill="none" stroke="rgb(255,255,255)" stroke-width="102" stroke-linejoin="round" d="M 5024,2016 C 4613,2016 4205,2080 3814,2207 3424,2334 3056,2521 2723,2763 2391,3004 2099,3296 1858,3628 1616,3961 1429,4329 1302,4719 1175,5109 1111,5517 1111,5927 1111,6338 1175,6746 1302,7137 1429,7527 1616,7895 1858,8228 2099,8560 2391,8852 2723,9093 2930,9244 3152,9373 3384,9480 L 3931,8296 C 3776,8225 3628,8138 3490,8038 3269,7877 3074,7682 2913,7461 2752,7239 2627,6994 2543,6734 2458,6473 2415,6201 2415,5928 2415,5654 2458,5382 2543,5121 2627,4862 2752,4617 2913,4395 3074,4174 3269,3979 3490,3818 3712,3657 3957,3532 4217,3448 4478,3363 4750,3320 5024,3320 L 5024,2016 Z"/>
 <path fill="rgb(235,240,105)" stroke="none" d="M 3384,9480 C 3524,9545 3668,9601 3814,9649 4205,9776 4613,9841 5023,9841 5433,9841 5841,9776 6232,9649 6622,9522 6990,9335 7323,9093 7420,9022 7514,8947 7604,8868 L 6744,7888 C 6683,7941 6621,7991 6556,8038 6334,8199 6089,8324 5829,8408 5568,8493 5296,8536 5023,8536 4750,8536 4478,8493 4217,8408 4120,8377 4024,8339 3931,8296 L 3384,9480 Z"/>
 <path fill="none" stroke="rgb(255,255,255)" stroke-width="102" stroke-linejoin="round" d="M 3384,9480 C 3524,9545 3668,9601 3814,9649 4205,9776 4613,9841 5023,9841 5433,9841 5841,9776 6232,9649 6622,9522 6990,9335 7323,9093 7420,9022 7514,8947 7604,8868 L 6744,7888 C 6683,7941 6621,7991 6556,8038 6334,8199 6089,8324 5829,8408 5568,8493 5296,8536 5023,8536 4750,8536 4478,8493 4217,8408 4120,8377 4024,8339 3931,8296 L 3384,9480 Z"/>
 <path fill="rgb(255,193,112)" stroke="none" d="M 7604,8868 C 7822,8677 8018,8462 8188,8228 8430,7895 8617,7527 8744,7137 8807,6944 8854,6746 8886,6545 L 7598,6339 C 7577,6473 7545,6605 7503,6734 7419,6994 7294,7239 7133,7461 7019,7617 6889,7760 6744,7888 L 7604,8868 Z"/>
 <path fill="none" stroke="rgb(255,255,255)" stroke-width="102" stroke-linejoin="round" d="M 7604,8868 C 7822,8677 8018,8462 8188,8228 8430,7895 8617,7527 8744,7137 8807,6944 8854,6746 8886,6545 L 7598,6339 C 7577,6473 7545,6605 7503,6734 7419,6994 7294,7239 7133,7461 7019,7617 6889,7760 6744,7888 L 7604,8868 Z"/>
 <path fill="rgb(255,102,102)" stroke="none" d="M 8886,6545 C 8919,6341 8936,6134 8936,5928 8936,5517 8871,5109 8744,4719 8617,4329 8430,3961 8188,3628 7947,3296 7655,3004 7323,2763 6990,2521 6622,2334 6232,2207 5841,2080 5433,2016 5024,2016 L 5024,3320 C 5296,3320 5568,3363 5829,3448 6089,3532 6334,3657 6556,3818 6777,3979 6972,4174 7133,4395 7294,4617 7419,4862 7503,5121 7588,5382 7631,5654 7631,5928 7631,6065 7620,6203 7598,6339 L 8886,6545 Z"/>
 <path fill="none" stroke="rgb(255,255,255)" stroke-width="102" stroke-linejoin="round" d="M 8886,6545 C 8919,6341 8936,6134 8936,5928 8936,5517 8871,5109 8744,4719 8617,4329 8430,3961 8188,3628 7947,3296 7655,3004 7323,2763 6990,2521 6622,2334 6232,2207 5841,2080 5433,2016 5024,2016 L 5024,3320 C 5296,3320 5568,3363 5829,3448 6089,3532 6334,3657 6556,3818 6777,3979 6972,4174 7133,4395 7294,4617 7419,4862 7503,5121 7588,5382 7631,5654 7631,5928 7631,6065 7620,6203 7598,6339 L 8886,6545 Z"/>
 <path fill="rgb(180,228,150)" stroke="none" d="M 5024,3320 C 4750,3320 4478,3363 4217,3448 3957,3532 3712,3657 3490,3818 3269,3979 3074,4174 2913,4395 2752,4617 2627,4862 2543,5121 2458,5382 2415,5654 2415,5928 2415,6201 2458,6473 2543,6734 2627,6994 2752,7239 2913,7461 3074,7682 3269,7877 3490,8038 3712,8199 3957,8324 4217,8408 4478,8493 4750,8536 5023,8536 5148,8536 5273,8527 5397,8509 L 5210,7218 C 5148,7227 5085,7232 5024,7232 4887,7232 4751,7210 4620,7168 4490,7126 4368,7063 4257,6983 4146,6902 4049,6805 3968,6694 3888,6583 3825,6461 3783,6331 3741,6200 3719,6064 3719,5928 3719,5791 3741,5655 3783,5524 3825,5394 3888,5272 3968,5161 4049,5051 4146,4954 4257,4873 4368,4793 4490,4730 4620,4688 4751,4646 4887,4624 5024,4624 L 5024,3320 Z"/>
 <path fill="none" stroke="rgb(255,255,255)" stroke-width="102" stroke-linejoin="round" d="M 5024,3320 C 4750,3320 4478,3363 4217,3448 3957,3532 3712,3657 3490,3818 3269,3979 3074,4174 2913,4395 2752,4617 2627,4862 2543,5121 2458,5382 2415,5654 2415,5928 2415,6201 2458,6473 2543,6734 2627,6994 2752,7239 2913,7461 3074,7682 3269,7877 3490,8038 3712,8199 3957,8324 4217,8408 4478,8493 4750,8536 5023,8536 5148,8536 5273,8527 5397,8509 L 5210,7218 C 5148,7227 5085,7232 5024,7232 4887,7232 4751,7210 4620,7168 4490,7126 4368,7063 4257,6983 4146,6902 4049,6805 3968,6694 3888,6583 3825,6461 3783,6331 3741,6200 3719,6064 3719,5928 3719,5791 3741,5655 3783,5524 3825,5394 3888,5272 3968,5161 4049,5051 4146,4954 4257,4873 4368,4793 4490,4730 4620,4688 4751,4646 4887,4624 5024,4624 L 5024,3320 Z"/>
 <path fill="rgb(235,240,105)" stroke="none" d="M 5397,8509 C 5544,8488 5688,8454 5829,8408 5974,8361 6115,8301 6250,8229 L 5636,7078 C 5569,7114 5498,7144 5426,7168 5355,7191 5283,7208 5210,7218 L 5397,8509 Z"/>
 <path fill="none" stroke="rgb(255,255,255)" stroke-width="102" stroke-linejoin="round" d="M 5397,8509 C 5544,8488 5688,8454 5829,8408 5974,8361 6115,8301 6250,8229 L 5636,7078 C 5569,7114 5498,7144 5426,7168 5355,7191 5283,7208 5210,7218 L 5397,8509 Z"/>
 <path fill="rgb(255,193,112)" stroke="none" d="M 6250,8229 C 6356,8173 6458,8109 6556,8038 6777,7877 6972,7682 7133,7461 7294,7239 7419,6994 7503,6734 7545,6605 7577,6473 7598,6339 L 6310,6133 C 6300,6200 6284,6266 6263,6331 6221,6461 6158,6583 6078,6694 5997,6805 5900,6902 5789,6983 5740,7018 5689,7050 5636,7078 L 6250,8229 Z"/>
 <path fill="none" stroke="rgb(255,255,255)" stroke-width="102" stroke-linejoin="round" d="M 6250,8229 C 6356,8173 6458,8109 6556,8038 6777,7877 6972,7682 7133,7461 7294,7239 7419,6994 7503,6734 7545,6605 7577,6473 7598,6339 L 6310,6133 C 6300,6200 6284,6266 6263,6331 6221,6461 6158,6583 6078,6694 5997,6805 5900,6902 5789,6983 5740,7018 5689,7050 5636,7078 L 6250,8229 Z"/>
 <path fill="rgb(255,102,102)" stroke="none" d="M 7598,6339 C 7620,6203 7631,6065 7631,5928 7631,5654 7588,5382 7503,5121 7419,4862 7294,4617 7133,4395 6972,4174 6777,3979 6556,3818 6334,3657 6089,3532 5829,3448 5568,3363 5296,3320 5024,3320 L 5024,4624 C 5159,4624 5295,4646 5426,4688 5556,4730 5678,4793 5789,4873 5900,4954 5997,5051 6078,5161 6158,5272 6221,5394 6263,5524 6305,5655 6327,5791 6327,5928 6327,5996 6321,6065 6310,6133 L 7598,6339 Z"/>
 <path fill="none" stroke="rgb(255,255,255)" stroke-width="102" stroke-linejoin="round" d="M 7598,6339 C 7620,6203 7631,6065 7631,5928 7631,5654 7588,5382 7503,5121 7419,4862 7294,4617 7133,4395 6972,4174 6777,3979 6556,3818 6334,3657 6089,3532 5829,3448 5568,3363 5296,3320 5024,3320 L 5024,4624 C 5159,4624 5295,4646 5426,4688 5556,4730 5678,4793 5789,4873 5900,4954 5997,5051 6078,5161 6158,5272 6221,5394 6263,5524 6305,5655 6327,5791 6327,5928 6327,5996 6321,6065 6310,6133 L 7598,6339 Z"/>
 <text class="SVGTextShape"><tspan class="TextParagraph" font-family="Liberation Sans, sans-serif" font-size="353px" font-weight="400"><tspan class="TextPosition" x="1654" y="5349"><tspan fill="rgb(0,0,0)" stroke="none" style="white-space: pre">47</tspan></tspan></tspan></text>
 <text class="SVGTextShape"><tspan class="TextParagraph" font-family="Liberation Sans, sans-serif" font-size="353px" font-weight="400"><tspan class="TextPosition" x="5307" y="9276"><tspan fill="rgb(0,0,0)" stroke="none" style="white-space: pre">20</tspan></tspan></tspan></text>
 <text class="SVGTextShape"><tspan class="TextParagraph" font-family="Liberation Sans, sans-serif" font-size="353px" font-weight="400"><tspan class="TextPosition" x="7693" y="7624"><tspan fill="rgb(0,0,0)" stroke="none" style="white-space: pre">12</tspan></tspan></tspan></text>
 <text class="SVGTextShape"><tspan class="TextParagraph" font-family="Liberation Sans, sans-serif" font-size="353px" font-weight="400"><tspan class="TextPosition" x="7320" y="3933"><tspan fill="rgb(0,0,0)" stroke="none" style="white-space: pre">30</tspan></tspan></tspan></text>
 <text class="SVGTextShape"><tspan class="TextParagraph" font-family="Liberation Sans, sans-serif" font-size="353px" font-weight="400"><tspan class="TextPosition" x="2887" y="6189"><tspan fill="rgb(0,0,0)" stroke="none" style="white-space: pre">57</tspan></tspan></tspan></text>
 <text class="SVGTextShape"><tspan class="TextParagraph" font-family="Liberation Sans, sans-serif" font-size="353px" font-weight="400"><tspan class="TextPosition" x="5540" y="7907"><tspan fill="rgb(0,0,0)" stroke="none" style="white-space: pre">6</tspan></tspan></tspan></text>
 <text class="SVGTextShape"><tspan class="TextParagraph" font-family="Liberation Sans, sans-serif" font-size="353px" font-weight="400"><tspan class="TextPosition" x="6431" y="7185"><tspan fill="rgb(0,0,0)" stroke="none" style="white-space: pre">16</tspan></tspan></tspan></text>
 <text class="SVGTextShape"><tspan class="TextParagraph" font-family="Liberation Sans, sans-serif" font-size="353px" font-weight="400"><tspan class="TextPosition" x="6327" y="4779"><tspan fill="rgb(0,0,0)" stroke="none" style="white-space: pre">30</tspan></tspan></tspan></text>
 <text class="SVGTextShape"><tspan class="TextParagraph" font-family="Liberation Sans, sans-serif" font-size="459px" font-weight="400"><tspan class="TextPosition" x="2939" y="762"><tspan fill="rgb(0,0,0)" stroke="none" style="white-space: pre">iPad - Overall Scores</tspan></tspan></tspan></text>
 <text class="SVGTextShape"><tspan class="TextParagraph" font-family="Liberation Sans, sans-serif" font-size="388px" font-weight="400"><tspan class="TextPosition" x="3282" y="1293"><tspan fill="rgb(0,0,0)" stroke="none" style="white-space: pre">Morrison - Outer ring</tspan></tspan></tspan><tspan class="TextParagraph" font-family="Liberation Sans, sans-serif" font-size="388px" font-weight="400"><tspan class="TextPosition" x="3468" y="1743"><tspan fill="rgb(0,0,0)" stroke="none" style="white-space: pre">Fussell - Inner ring</tspan></tspan></tspan></text>
</svg>