<?xml version="1.0" encoding="UTF-8" standalone="no"?>
<svg
   width="229mm"
   height="153mm"
   viewBox="0 0 22900 15300"
   version="1.1"
   stroke-width="28.222"
   stroke-linejoin="round"
   xml:space="preserve"
   id="svg556"
   sodipodi:docname="ipad_ratings.svg"
   inkscape:version="1.1.2 (b8e25be833, 2022-02-05)"
   xmlns:inkscape="http://www.inkscape.org/namespaces/inkscape"
   xmlns:sodipodi="http://sodipodi.sourceforge.net/DTD/sodipodi-0.dtd"
   xmlns="http://www.w3.org/2000/svg"
   xmlns:svg="http://www.w3.org/2000/svg"><defs
   id="defs560" /><sodipodi:namedview
   id="namedview558"
   pagecolor="#ffffff"
   bordercolor="#111111"
   borderopacity="1"
   inkscape:pageshadow="0"
   inkscape:pageopacity="0"
   inkscape:pagecheckerboard="1"
   inkscape:document-units="mm"
   showgrid="false"
   inkscape:zoom="1.2223981"
   inkscape:cx="432.34687"
   inkscape:cy="288.77663"
   inkscape:window-width="1920"
   inkscape:window-height="1017"
   inkscape:window-x="-8"
   inkscape:window-y="-8"
   inkscape:window-maximized="1"
   inkscape:current-layer="svg556" />
 <path
   fill="rgb(255,255,255)"
   stroke="none"
   d="M 11417,15227 L -13,15227 -13,-13 22847,-13 22847,15227 11417,15227 Z"
   id="path2" />
 <path
   fill="none"
   stroke="rgb(179,179,179)"
   stroke-linejoin="round"
   d="M 10967,12746 L 1602,12746 1602,2434 20332,2434 20332,12746 10967,12746 Z"
   id="path4" />
 <path
   fill="none"
   stroke="rgb(179,179,179)"
   stroke-linejoin="round"
   d="M 20332,12745 L 1602,12745"
   id="path6" />
 <path
   fill="none"
   stroke="rgb(179,179,179)"
   stroke-linejoin="round"
   d="M 20332,10682 L 1602,10682"
   id="path8" />
 <path
   fill="none"
   stroke="rgb(179,179,179)"
   stroke-linejoin="round"
   d="M 20332,8619 L 1602,8619"
   id="path10" />
 <path
   fill="none"
   stroke="rgb(179,179,179)"
   stroke-linejoin="round"
   d="M 20332,6558 L 1602,6558"
   id="path12" />
 <path
   fill="none"
   stroke="rgb(179,179,179)"
   stroke-linejoin="round"
   d="M 20332,4495 L 1602,4495"
   id="path14" />
 <path
   fill="none"
   stroke="rgb(179,179,179)"
   stroke-linejoin="round"
   d="M 20332,2432 L 1602,2432"
   id="path16" />
 <path
   fill="none"
   stroke="rgb(179,179,179)"
   stroke-linejoin="round"
   d="M 1602,12895 L 1602,12745"
   id="path18" />
 <path
   fill="none"
   stroke="rgb(179,179,179)"
   stroke-linejoin="round"
   d="M 1602,12895 L 1602,12745"
   id="path20" />
 <path
   fill="none"
   stroke="rgb(179,179,179)"
   stroke-linejoin="round"
   d="M 2137,12895 L 2137,12745"
   id="path22" />
 <path
   fill="none"
   stroke="rgb(179,179,179)"
   stroke-linejoin="round"
   d="M 2137,12895 L 2137,12745"
   id="path24" />
 <path
   fill="none"
   stroke="rgb(179,179,179)"
   stroke-linejoin="round"
   d="M 2672,12895 L 2672,12745"
   id="path26" />
 <path
   fill="none"
   stroke="rgb(179,179,179)"
   stroke-linejoin="round"
   d="M 2672,12895 L 2672,12745"
   id="path28" />
 <path
   fill="none"
   stroke="rgb(179,179,179)"
   stroke-linejoin="round"
   d="M 3207,12895 L 3207,12745"
   id="path30" />
 <path
   fill="none"
   stroke="rgb(179,179,179)"
   stroke-linejoin="round"
   d="M 3207,12895 L 3207,12745"
   id="path32" />
 <path
   fill="none"
   stroke="rgb(179,179,179)"
   stroke-linejoin="round"
   d="M 3742,12895 L 3742,12745"
   id="path34" />
 <path
   fill="none"
   stroke="rgb(179,179,179)"
   stroke-linejoin="round"
   d="M 3742,12895 L 3742,12745"
   id="path36" />
 <path
   fill="none"
   stroke="rgb(179,179,179)"
   stroke-linejoin="round"
   d="M 4277,12895 L 4277,12745"
   id="path38" />
 <path
   fill="none"
   stroke="rgb(179,179,179)"
   stroke-linejoin="round"
   d="M 4277,12895 L 4277,12745"
   id="path40" />
 <path
   fill="none"
   stroke="rgb(179,179,179)"
   stroke-linejoin="round"
   d="M 4813,12895 L 4813,12745"
   id="path42" />
 <path
   fill="none"
   stroke="rgb(179,179,179)"
   stroke-linejoin="round"
   d="M 4813,12895 L 4813,12745"
   id="path44" />
 <path
   fill="none"
   stroke="rgb(179,179,179)"
   stroke-linejoin="round"
   d="M 5348,12895 L 5348,12745"
   id="path46" />
 <path
   fill="none"
   stroke="rgb(179,179,179)"
   stroke-linejoin="round"
   d="M 5348,12895 L 5348,12745"
   id="path48" />
 <path
   fill="none"
   stroke="rgb(179,179,179)"
   stroke-linejoin="round"
   d="M 5883,12895 L 5883,12745"
   id="path50" />
 <path
   fill="none"
   stroke="rgb(179,179,179)"
   stroke-linejoin="round"
   d="M 5883,12895 L 5883,12745"
   id="path52" />
 <path
   fill="none"
   stroke="rgb(179,179,179)"
   stroke-linejoin="round"
   d="M 6418,12895 L 6418,12745"
   id="path54" />
 <path
   fill="none"
   stroke="rgb(179,179,179)"
   stroke-linejoin="round"
   d="M 6418,12895 L 6418,12745"
   id="path56" />
 <path
   fill="none"
   stroke="rgb(179,179,179)"
   stroke-linejoin="round"
   d="M 6953,12895 L 6953,12745"
   id="path58" />
 <path
   fill="none"
   stroke="rgb(179,179,179)"
   stroke-linejoin="round"
   d="M 6953,12895 L 6953,12745"
   id="path60" />
 <path
   fill="none"
   stroke="rgb(179,179,179)"
   stroke-linejoin="round"
   d="M 7488,12895 L 7488,12745"
   id="path62" />
 <path
   fill="none"
   stroke="rgb(179,179,179)"
   stroke-linejoin="round"
   d="M 7488,12895 L 7488,12745"
   id="path64" />
 <path
   fill="none"
   stroke="rgb(179,179,179)"
   stroke-linejoin="round"
   d="M 8024,12895 L 8024,12745"
   id="path66" />
 <path
   fill="none"
   stroke="rgb(179,179,179)"
   stroke-linejoin="round"
   d="M 8024,12895 L 8024,12745"
   id="path68" />
 <path
   fill="none"
   stroke="rgb(179,179,179)"
   stroke-linejoin="round"
   d="M 8559,12895 L 8559,12745"
   id="path70" />
 <path
   fill="none"
   stroke="rgb(179,179,179)"
   stroke-linejoin="round"
   d="M 8559,12895 L 8559,12745"
   id="path72" />
 <path
   fill="none"
   stroke="rgb(179,179,179)"
   stroke-linejoin="round"
   d="M 9094,12895 L 9094,12745"
   id="path74" />
 <path
   fill="none"
   stroke="rgb(179,179,179)"
   stroke-linejoin="round"
   d="M 9094,12895 L 9094,12745"
   id="path76" />
 <path
   fill="none"
   stroke="rgb(179,179,179)"
   stroke-linejoin="round"
   d="M 9629,12895 L 9629,12745"
   id="path78" />
 <path
   fill="none"
   stroke="rgb(179,179,179)"
   stroke-linejoin="round"
   d="M 9629,12895 L 9629,12745"
   id="path80" />
 <path
   fill="none"
   stroke="rgb(179,179,179)"
   stroke-linejoin="round"
   d="M 10164,12895 L 10164,12745"
   id="path82" />
 <path
   fill="none"
   stroke="rgb(179,179,179)"
   stroke-linejoin="round"
   d="M 10164,12895 L 10164,12745"
   id="path84" />
 <path
   fill="none"
   stroke="rgb(179,179,179)"
   stroke-linejoin="round"
   d="M 10699,12895 L 10699,12745"
   id="path86" />
 <path
   fill="none"
   stroke="rgb(179,179,179)"
   stroke-linejoin="round"
   d="M 10699,12895 L 10699,12745"
   id="path88" />
 <path
   fill="none"
   stroke="rgb(179,179,179)"
   stroke-linejoin="round"
   d="M 11235,12895 L 11235,12745"
   id="path90" />
 <path
   fill="none"
   stroke="rgb(179,179,179)"
   stroke-linejoin="round"
   d="M 11235,12895 L 11235,12745"
   id="path92" />
 <path
   fill="none"
   stroke="rgb(179,179,179)"
   stroke-linejoin="round"
   d="M 11769,12895 L 11769,12745"
   id="path94" />
 <path
   fill="none"
   stroke="rgb(179,179,179)"
   stroke-linejoin="round"
   d="M 11769,12895 L 11769,12745"
   id="path96" />
 <path
   fill="none"
   stroke="rgb(179,179,179)"
   stroke-linejoin="round"
   d="M 12304,12895 L 12304,12745"
   id="path98" />
 <path
   fill="none"
   stroke="rgb(179,179,179)"
   stroke-linejoin="round"
   d="M 12304,12895 L 12304,12745"
   id="path100" />
 <path
   fill="none"
   stroke="rgb(179,179,179)"
   stroke-linejoin="round"
   d="M 12839,12895 L 12839,12745"
   id="path102" />
 <path
   fill="none"
   stroke="rgb(179,179,179)"
   stroke-linejoin="round"
   d="M 12839,12895 L 12839,12745"
   id="path104" />
 <path
   fill="none"
   stroke="rgb(179,179,179)"
   stroke-linejoin="round"
   d="M 13374,12895 L 13374,12745"
   id="path106" />
 <path
   fill="none"
   stroke="rgb(179,179,179)"
   stroke-linejoin="round"
   d="M 13374,12895 L 13374,12745"
   id="path108" />
 <path
   fill="none"
   stroke="rgb(179,179,179)"
   stroke-linejoin="round"
   d="M 13909,12895 L 13909,12745"
   id="path110" />
 <path
   fill="none"
   stroke="rgb(179,179,179)"
   stroke-linejoin="round"
   d="M 13909,12895 L 13909,12745"
   id="path112" />
 <path
   fill="none"
   stroke="rgb(179,179,179)"
   stroke-linejoin="round"
   d="M 14445,12895 L 14445,12745"
   id="path114" />
 <path
   fill="none"
   stroke="rgb(179,179,179)"
   stroke-linejoin="round"
   d="M 14445,12895 L 14445,12745"
   id="path116" />
 <path
   fill="none"
   stroke="rgb(179,179,179)"
   stroke-linejoin="round"
   d="M 14980,12895 L 14980,12745"
   id="path118" />
 <path
   fill="none"
   stroke="rgb(179,179,179)"
   stroke-linejoin="round"
   d="M 14980,12895 L 14980,12745"
   id="path120" />
 <path
   fill="none"
   stroke="rgb(179,179,179)"
   stroke-linejoin="round"
   d="M 15515,12895 L 15515,12745"
   id="path122" />
 <path
   fill="none"
   stroke="rgb(179,179,179)"
   stroke-linejoin="round"
   d="M 15515,12895 L 15515,12745"
   id="path124" />
 <path
   fill="none"
   stroke="rgb(179,179,179)"
   stroke-linejoin="round"
   d="M 16050,12895 L 16050,12745"
   id="path126" />
 <path
   fill="none"
   stroke="rgb(179,179,179)"
   stroke-linejoin="round"
   d="M 16050,12895 L 16050,12745"
   id="path128" />
 <path
   fill="none"
   stroke="rgb(179,179,179)"
   stroke-linejoin="round"
   d="M 16585,12895 L 16585,12745"
   id="path130" />
 <path
   fill="none"
   stroke="rgb(179,179,179)"
   stroke-linejoin="round"
   d="M 16585,12895 L 16585,12745"
   id="path132" />
 <path
   fill="none"
   stroke="rgb(179,179,179)"
   stroke-linejoin="round"
   d="M 17120,12895 L 17120,12745"
   id="path134" />
 <path
   fill="none"
   stroke="rgb(179,179,179)"
   stroke-linejoin="round"
   d="M 17120,12895 L 17120,12745"
   id="path136" />
 <path
   fill="none"
   stroke="rgb(179,179,179)"
   stroke-linejoin="round"
   d="M 17656,12895 L 17656,12745"
   id="path138" />
 <path
   fill="none"
   stroke="rgb(179,179,179)"
   stroke-linejoin="round"
   d="M 17656,12895 L 17656,12745"
   id="path140" />
 <path
   fill="none"
   stroke="rgb(179,179,179)"
   stroke-linejoin="round"
   d="M 18191,12895 L 18191,12745"
   id="path142" />
 <path
   fill="none"
   stroke="rgb(179,179,179)"
   stroke-linejoin="round"
   d="M 18191,12895 L 18191,12745"
   id="path144" />
 <path
   fill="none"
   stroke="rgb(179,179,179)"
   stroke-linejoin="round"
   d="M 18726,12895 L 18726,12745"
   id="path146" />
 <path
   fill="none"
   stroke="rgb(179,179,179)"
   stroke-linejoin="round"
   d="M 18726,12895 L 18726,12745"
   id="path148" />
 <path
   fill="none"
   stroke="rgb(179,179,179)"
   stroke-linejoin="round"
   d="M 19261,12895 L 19261,12745"
   id="path150" />
 <path
   fill="none"
   stroke="rgb(179,179,179)"
   stroke-linejoin="round"
   d="M 19261,12895 L 19261,12745"
   id="path152" />
 <path
   fill="none"
   stroke="rgb(179,179,179)"
   stroke-linejoin="round"
   d="M 19796,12895 L 19796,12745"
   id="path154" />
 <path
   fill="none"
   stroke="rgb(179,179,179)"
   stroke-linejoin="round"
   d="M 19796,12895 L 19796,12745"
   id="path156" />
 <path
   fill="none"
   stroke="rgb(179,179,179)"
   stroke-linejoin="round"
   d="M 20332,12895 L 20332,12745"
   id="path158" />
 <path
   fill="none"
   stroke="rgb(179,179,179)"
   stroke-linejoin="round"
   d="M 20332,12895 L 20332,12745"
   id="path160" />
 <path
   fill="none"
   stroke="rgb(179,179,179)"
   stroke-linejoin="round"
   d="M 1602,12745 L 20332,12745"
   id="path162" />
 <path
   fill="none"
   stroke="rgb(179,179,179)"
   stroke-linejoin="round"
   d="M 1452,12745 L 1602,12745"
   id="path164" />
 <path
   fill="none"
   stroke="rgb(179,179,179)"
   stroke-linejoin="round"
   d="M 1452,12745 L 1602,12745"
   id="path166" />
 <path
   fill="none"
   stroke="rgb(179,179,179)"
   stroke-linejoin="round"
   d="M 1452,10682 L 1602,10682"
   id="path168" />
 <path
   fill="none"
   stroke="rgb(179,179,179)"
   stroke-linejoin="round"
   d="M 1452,10682 L 1602,10682"
   id="path170" />
 <path
   fill="none"
   stroke="rgb(179,179,179)"
   stroke-linejoin="round"
   d="M 1452,8619 L 1602,8619"
   id="path172" />
 <path
   fill="none"
   stroke="rgb(179,179,179)"
   stroke-linejoin="round"
   d="M 1452,8619 L 1602,8619"
   id="path174" />
 <path
   fill="none"
   stroke="rgb(179,179,179)"
   stroke-linejoin="round"
   d="M 1452,6558 L 1602,6558"
   id="path176" />
 <path
   fill="none"
   stroke="rgb(179,179,179)"
   stroke-linejoin="round"
   d="M 1452,6558 L 1602,6558"
   id="path178" />
 <path
   fill="none"
   stroke="rgb(179,179,179)"
   stroke-linejoin="round"
   d="M 1452,4495 L 1602,4495"
   id="path180" />
 <path
   fill="none"
   stroke="rgb(179,179,179)"
   stroke-linejoin="round"
   d="M 1452,4495 L 1602,4495"
   id="path182" />
 <path
   fill="none"
   stroke="rgb(179,179,179)"
   stroke-linejoin="round"
   d="M 1452,2432 L 1602,2432"
   id="path184" />
 <path
   fill="none"
   stroke="rgb(179,179,179)"
   stroke-linejoin="round"
   d="M 1452,2432 L 1602,2432"
   id="path186" />
 <path
   fill="none"
   stroke="rgb(179,179,179)"
   stroke-linejoin="round"
   d="M 1602,12745 L 1602,2432"
   id="path188" />
 <path
   fill="rgb(180,228,150)"
   stroke="none"
   d="M 19841,12745 L 20287,12745 20287,10682 19841,10682 19841,12745 Z"
   id="path190" />
 <path
   fill="rgb(180,228,150)"
   stroke="none"
   d="M 19306,12745 L 19752,12745 19752,10682 19306,10682 19306,12745 Z"
   id="path192" />
 <path
   fill="rgb(180,228,150)"
   stroke="none"
   d="M 18235,12745 L 18681,12745 18681,11919 18235,11919 18235,12745 Z"
   id="path194" />
 <path
   fill="rgb(180,228,150)"
   stroke="none"
   d="M 17700,12745 L 18146,12745 18146,12332 17700,12332 17700,12745 Z"
   id="path196" />
 <path
   fill="rgb(180,228,150)"
   stroke="none"
   d="M 16630,12745 L 17076,12745 17076,12745 16630,12745 Z"
   id="path198" />
 <path
   fill="rgb(180,228,150)"
   stroke="none"
   d="M 16095,12745 L 16541,12745 16541,12745 16095,12745 Z"
   id="path200" />
 <path
   fill="rgb(180,228,150)"
   stroke="none"
   d="M 15024,12745 L 15470,12745 15470,11094 15024,11094 15024,12745 Z"
   id="path202" />
 <path
   fill="rgb(180,228,150)"
   stroke="none"
   d="M 14489,12745 L 14935,12745 14935,12745 14489,12745 Z"
   id="path204" />
 <path
   fill="rgb(180,228,150)"
   stroke="none"
   d="M 13419,12745 L 13865,12745 13865,11919 13419,11919 13419,12745 Z"
   id="path206" />
 <path
   fill="rgb(180,228,150)"
   stroke="none"
   d="M 12884,12745 L 13330,12745 13330,11507 12884,11507 12884,12745 Z"
   id="path208" />
 <path
   fill="rgb(180,228,150)"
   stroke="none"
   d="M 11813,12745 L 12259,12745 12259,9857 11813,9857 11813,12745 Z"
   id="path210" />
 <path
   fill="rgb(180,228,150)"
   stroke="none"
   d="M 11279,12745 L 11724,12745 11724,9032 11279,9032 11279,12745 Z"
   id="path212" />
 <path
   fill="rgb(180,228,150)"
   stroke="none"
   d="M 10209,12745 L 10655,12745 10655,9444 10209,9444 10209,12745 Z"
   id="path214" />
 <path
   fill="rgb(180,228,150)"
   stroke="none"
   d="M 9674,12745 L 10120,12745 10120,10682 9674,10682 9674,12745 Z"
   id="path216" />
 <path
   fill="rgb(180,228,150)"
   stroke="none"
   d="M 8603,12745 L 9049,12745 9049,11094 8603,11094 8603,12745 Z"
   id="path218" />
 <path
   fill="rgb(180,228,150)"
   stroke="none"
   d="M 8068,12745 L 8514,12745 8514,10269 8068,10269 8068,12745 Z"
   id="path220" />
 <path
   fill="rgb(180,228,150)"
   stroke="none"
   d="M 6998,12745 L 7444,12745 7444,6970 6998,6970 6998,12745 Z"
   id="path222" />
 <path
   fill="rgb(180,228,150)"
   stroke="none"
   d="M 6463,12745 L 6909,12745 6909,9444 6463,9444 6463,12745 Z"
   id="path224" />
 <path
   fill="rgb(180,228,150)"
   stroke="none"
   d="M 5392,12745 L 5838,12745 5838,9857 5392,9857 5392,12745 Z"
   id="path226" />
 <path
   fill="rgb(180,228,150)"
   stroke="none"
   d="M 4857,12745 L 5303,12745 5303,10682 4857,10682 4857,12745 Z"
   id="path228" />
 <path
   fill="rgb(180,228,150)"
   stroke="none"
   d="M 3787,12745 L 4233,12745 4233,11094 3787,11094 3787,12745 Z"
   id="path230" />
 <path
   fill="rgb(180,228,150)"
   stroke="none"
   d="M 3252,12745 L 3698,12745 3698,11094 3252,11094 3252,12745 Z"
   id="path232" />
 <path
   fill="rgb(180,228,150)"
   stroke="none"
   d="M 2181,12745 L 2627,12745 2627,12745 2181,12745 Z"
   id="path234" />
 <path
   fill="rgb(180,228,150)"
   stroke="none"
   d="M 1646,12745 L 2092,12745 2092,12332 1646,12332 1646,12745 Z"
   id="path236" />
 <path
   fill="rgb(235,240,105)"
   stroke="none"
   d="M 17700,12332 L 18146,12332 18146,11919 17700,11919 17700,12332 Z"
   id="path238" />
 <path
   fill="rgb(235,240,105)"
   stroke="none"
   d="M 16630,12745 L 17076,12745 17076,12332 16630,12332 16630,12745 Z"
   id="path240" />
 <path
   fill="rgb(235,240,105)"
   stroke="none"
   d="M 16095,12745 L 16541,12745 16541,12745 16095,12745 Z"
   id="path242" />
 <path
   fill="rgb(235,240,105)"
   stroke="none"
   d="M 14489,12745 L 14935,12745 14935,11919 14489,11919 14489,12745 Z"
   id="path244" />
 <path
   fill="rgb(235,240,105)"
   stroke="none"
   d="M 12884,11507 L 13330,11507 13330,11094 12884,11094 12884,11507 Z"
   id="path246" />
 <path
   fill="rgb(235,240,105)"
   stroke="none"
   d="M 11279,9032 L 11724,9032 11724,8619 11279,8619 11279,9032 Z"
   id="path248" />
 <path
   fill="rgb(235,240,105)"
   stroke="none"
   d="M 10209,9444 L 10655,9444 10655,9032 10209,9032 10209,9444 Z"
   id="path250" />
 <path
   fill="rgb(235,240,105)"
   stroke="none"
   d="M 9674,10682 L 10120,10682 10120,9444 9674,9444 9674,10682 Z"
   id="path252" />
 <path
   fill="rgb(235,240,105)"
   stroke="none"
   d="M 8603,11094 L 9049,11094 9049,10682 8603,10682 8603,11094 Z"
   id="path254" />
 <path
   fill="rgb(235,240,105)"
   stroke="none"
   d="M 8068,10269 L 8514,10269 8514,9857 8068,9857 8068,10269 Z"
   id="path256" />
 <path
   fill="rgb(235,240,105)"
   stroke="none"
   d="M 6998,6970 L 7444,6970 7444,6558 6998,6558 6998,6970 Z"
   id="path258" />
 <path
   fill="rgb(235,240,105)"
   stroke="none"
   d="M 6463,9444 L 6909,9444 6909,6145 6463,6145 6463,9444 Z"
   id="path260" />
 <path
   fill="rgb(235,240,105)"
   stroke="none"
   d="M 4857,10682 L 5303,10682 5303,9857 4857,9857 4857,10682 Z"
   id="path262" />
 <path
   fill="rgb(235,240,105)"
   stroke="none"
   d="M 2181,12745 L 2627,12745 2627,11919 2181,11919 2181,12745 Z"
   id="path264" />
 <path
   fill="rgb(235,240,105)"
   stroke="none"
   d="M 1646,12332 L 2092,12332 2092,11919 1646,11919 1646,12332 Z"
   id="path266" />
 <path
   fill="rgb(255,193,112)"
   stroke="none"
   d="M 18235,11919 L 18681,11919 18681,11094 18235,11094 18235,11919 Z"
   id="path268" />
 <path
   fill="rgb(255,193,112)"
   stroke="none"
   d="M 17700,11919 L 18146,11919 18146,10682 17700,10682 17700,11919 Z"
   id="path270" />
 <path
   fill="rgb(255,193,112)"
   stroke="none"
   d="M 16630,12332 L 17076,12332 17076,11919 16630,11919 16630,12332 Z"
   id="path272" />
 <path
   fill="rgb(255,193,112)"
   stroke="none"
   d="M 16095,12745 L 16541,12745 16541,12745 16095,12745 Z"
   id="path274" />
 <path
   fill="rgb(255,193,112)"
   stroke="none"
   d="M 14489,11919 L 14935,11919 14935,11094 14489,11094 14489,11919 Z"
   id="path276" />
 <path
   fill="rgb(255,193,112)"
   stroke="none"
   d="M 13419,11919 L 13865,11919 13865,11094 13419,11094 13419,11919 Z"
   id="path278" />
 <path
   fill="rgb(255,193,112)"
   stroke="none"
   d="M 11813,9857 L 12259,9857 12259,8619 11813,8619 11813,9857 Z"
   id="path280" />
 <path
   fill="rgb(255,193,112)"
   stroke="none"
   d="M 11279,8619 L 11724,8619 11724,8207 11279,8207 11279,8619 Z"
   id="path282" />
 <path
   fill="rgb(255,193,112)"
   stroke="none"
   d="M 9674,9444 L 10120,9444 10120,9032 9674,9032 9674,9444 Z"
   id="path284" />
 <path
   fill="rgb(255,193,112)"
   stroke="none"
   d="M 8603,10682 L 9049,10682 9049,10269 8603,10269 8603,10682 Z"
   id="path286" />
 <path
   fill="rgb(255,193,112)"
   stroke="none"
   d="M 8068,9857 L 8514,9857 8514,9444 8068,9444 8068,9857 Z"
   id="path288" />
 <path
   fill="rgb(255,193,112)"
   stroke="none"
   d="M 6998,6558 L 7444,6558 7444,4908 6998,4908 6998,6558 Z"
   id="path290" />
 <path
   fill="rgb(255,193,112)"
   stroke="none"
   d="M 6463,6145 L 6909,6145 6909,4908 6463,4908 6463,6145 Z"
   id="path292" />
 <path
   fill="rgb(255,193,112)"
   stroke="none"
   d="M 5392,9857 L 5838,9857 5838,9444 5392,9444 5392,9857 Z"
   id="path294" />
 <path
   fill="rgb(255,193,112)"
   stroke="none"
   d="M 3787,11094 L 4233,11094 4233,10269 3787,10269 3787,11094 Z"
   id="path296" />
 <path
   fill="rgb(255,193,112)"
   stroke="none"
   d="M 3252,11094 L 3698,11094 3698,10682 3252,10682 3252,11094 Z"
   id="path298" />
 <path
   fill="rgb(255,102,102)"
   stroke="none"
   d="M 18235,11094 L 18681,11094 18681,10269 18235,10269 18235,11094 Z"
   id="path300" />
 <path
   fill="rgb(255,102,102)"
   stroke="none"
   d="M 17700,10682 L 18146,10682 18146,10269 17700,10269 17700,10682 Z"
   id="path302" />
 <path
   fill="rgb(255,102,102)"
   stroke="none"
   d="M 16630,11919 L 17076,11919 17076,9032 16630,9032 16630,11919 Z"
   id="path304" />
 <path
   fill="rgb(255,102,102)"
   stroke="none"
   d="M 16095,12745 L 16541,12745 16541,9032 16095,9032 16095,12745 Z"
   id="path306" />
 <path
   fill="rgb(255,102,102)"
   stroke="none"
   d="M 15024,11094 L 15470,11094 15470,10269 15024,10269 15024,11094 Z"
   id="path308" />
 <path
   fill="rgb(255,102,102)"
   stroke="none"
   d="M 14489,11094 L 14935,11094 14935,10269 14489,10269 14489,11094 Z"
   id="path310" />
 <path
   fill="rgb(255,102,102)"
   stroke="none"
   d="M 13419,11094 L 13865,11094 13865,10269 13419,10269 13419,11094 Z"
   id="path312" />
 <path
   fill="rgb(255,102,102)"
   stroke="none"
   d="M 12884,11094 L 13330,11094 13330,10269 12884,10269 12884,11094 Z"
   id="path314" />
 <path
   fill="rgb(255,102,102)"
   stroke="none"
   d="M 11813,8619 L 12259,8619 12259,7794 11813,7794 11813,8619 Z"
   id="path316" />
 <path
   fill="rgb(255,102,102)"
   stroke="none"
   d="M 11279,8207 L 11724,8207 11724,7794 11279,7794 11279,8207 Z"
   id="path318" />
 <path
   fill="rgb(255,102,102)"
   stroke="none"
   d="M 8603,10269 L 9049,10269 9049,9444 8603,9444 8603,10269 Z"
   id="path320" />
 <path
   fill="rgb(255,102,102)"
   stroke="none"
   d="M 6998,4908 L 7444,4908 7444,3258 6998,3258 6998,4908 Z"
   id="path322" />
 <path
   fill="rgb(255,102,102)"
   stroke="none"
   d="M 6463,4908 L 6909,4908 6909,3258 6463,3258 6463,4908 Z"
   id="path324" />
 <path
   fill="rgb(255,102,102)"
   stroke="none"
   d="M 4857,9857 L 5303,9857 5303,9444 4857,9444 4857,9857 Z"
   id="path326" />
 <path
   fill="rgb(255,102,102)"
   stroke="none"
   d="M 3787,10269 L 4233,10269 4233,7794 3787,7794 3787,10269 Z"
   id="path328" />
 <path
   fill="rgb(255,102,102)"
   stroke="none"
   d="M 3252,10682 L 3698,10682 3698,7794 3252,7794 3252,10682 Z"
   id="path330" />
 <path
   fill="rgb(255,102,102)"
   stroke="none"
   d="M 2181,11919 L 2627,11919 2627,10682 2181,10682 2181,11919 Z"
   id="path332" />
 <path
   fill="rgb(255,102,102)"
   stroke="none"
   d="M 1646,11919 L 2092,11919 2092,10682 1646,10682 1646,11919 Z"
   id="path334" />
 <text
   class="SVGTextShape"
   transform="rotate(-90 1988 13896)"
   id="text342"><tspan
     class="TextParagraph"
     font-family="Liberation Sans, sans-serif"
     font-size="353px"
     font-weight="400"
     id="tspan340"><tspan
       class="TextPosition"
       x="1988"
       y="13896"
       id="tspan338"><tspan
         fill="rgb(0,0,0)"
         stroke="none"
         style="white-space: pre"
         id="tspan336">Setup</tspan></tspan></tspan></text>
 <text
   class="SVGTextShape"
   transform="rotate(-90 3594 14795)"
   id="text350"><tspan
     class="TextParagraph"
     font-family="Liberation Sans, sans-serif"
     font-size="353px"
     font-weight="400"
     id="tspan348"><tspan
       class="TextPosition"
       x="3594"
       y="14795"
       id="tspan346"><tspan
         fill="rgb(0,0,0)"
         stroke="none"
         style="white-space: pre"
         id="tspan344">Instructions</tspan></tspan></tspan></text>
 <text
   class="SVGTextShape"
   transform="rotate(-90 5199 14927)"
   id="text358"><tspan
     class="TextParagraph"
     font-family="Liberation Sans, sans-serif"
     font-size="353px"
     font-weight="400"
     id="tspan356"><tspan
       class="TextPosition"
       x="5199"
       y="14927"
       id="tspan354"><tspan
         fill="rgb(0,0,0)"
         stroke="none"
         style="white-space: pre"
         id="tspan352">Organization</tspan></tspan></tspan></text>
 
 <text
   class="SVGTextShape"
   transform="rotate(-90 8410 14610)"
   id="text380"><tspan
     class="TextParagraph"
     font-family="Liberation Sans, sans-serif"
     font-size="353px"
     font-weight="400"
     id="tspan378"><tspan
       class="TextPosition"
       x="8410"
       y="14610"
       id="tspan376"><tspan
         fill="rgb(0,0,0)"
         stroke="none"
         style="white-space: pre"
         id="tspan374">Integration</tspan></tspan></tspan></text>
 <text
   class="SVGTextShape"
   transform="rotate(-90 10016 14610)"
   id="text388"><tspan
     class="TextParagraph"
     font-family="Liberation Sans, sans-serif"
     font-size="353px"
     font-weight="400"
     id="tspan386"><tspan
       class="TextPosition"
       x="10016"
       y="14610"
       id="tspan384"><tspan
         fill="rgb(0,0,0)"
         stroke="none"
         style="white-space: pre"
         id="tspan382">Interaction</tspan></tspan></tspan></text>
 <text
   class="SVGTextShape"
   transform="rotate(-90 11620 14213)"
   id="text396"><tspan
     class="TextParagraph"
     font-family="Liberation Sans, sans-serif"
     font-size="353px"
     font-weight="400"
     id="tspan394"><tspan
       class="TextPosition"
       x="11620"
       y="14213"
       id="tspan392"><tspan
         fill="rgb(0,0,0)"
         stroke="none"
         style="white-space: pre"
         id="tspan390">Comfort</tspan></tspan></tspan></text>
 <text
   class="SVGTextShape"
   transform="rotate(-90 13226 14504)"
   id="text404"><tspan
     class="TextParagraph"
     font-family="Liberation Sans, sans-serif"
     font-size="353px"
     font-weight="400"
     id="tspan402"><tspan
       class="TextPosition"
       x="13226"
       y="14504"
       id="tspan400"><tspan
         fill="rgb(0,0,0)"
         stroke="none"
         style="white-space: pre"
         id="tspan398">Feedback</tspan></tspan></tspan></text>
 <text
   class="SVGTextShape"
   transform="rotate(-90 14831 14954)"
   id="text412"><tspan
     class="TextParagraph"
     font-family="Liberation Sans, sans-serif"
     font-size="353px"
     font-weight="400"
     id="tspan410"><tspan
       class="TextPosition"
       x="14831"
       y="14954"
       id="tspan408"><tspan
         fill="rgb(0,0,0)"
         stroke="none"
         style="white-space: pre"
         id="tspan406">Intuitiveness</tspan></tspan></tspan></text>
 <text
   class="SVGTextShape"
   transform="rotate(-90 16437 14980)"
   id="text420"><tspan
     class="TextParagraph"
     font-family="Liberation Sans, sans-serif"
     font-size="353px"
     font-weight="400"
     id="tspan418"><tspan
       class="TextPosition"
       x="16437"
       y="14980"
       id="tspan416"><tspan
         fill="rgb(0,0,0)"
         stroke="none"
         style="white-space: pre"
         id="tspan414">Collaboration</tspan></tspan></tspan></text>
 <text
   class="SVGTextShape"
   transform="rotate(-90 18042 14160)"
   id="text428"><tspan
     class="TextParagraph"
     font-family="Liberation Sans, sans-serif"
     font-size="353px"
     font-weight="400"
     id="tspan426"><tspan
       class="TextPosition"
       x="18042"
       y="14160"
       id="tspan424"><tspan
         fill="rgb(0,0,0)"
         stroke="none"
         style="white-space: pre"
         id="tspan422">Privacy</tspan></tspan></tspan></text>
 <text
   class="SVGTextShape"
   transform="rotate(-90 19648 15192)"
   id="text436"><tspan
     class="TextParagraph"
     font-family="Liberation Sans, sans-serif"
     font-size="353px"
     font-weight="400"
     id="tspan434"><tspan
       class="TextPosition"
       x="19648"
       y="15192"
       id="tspan432"><tspan
         fill="rgb(0,0,0)"
         stroke="none"
         style="white-space: pre"
         id="tspan430">Maintainability</tspan></tspan></tspan></text>
 <text
   class="SVGTextShape"
   id="text444"><tspan
     class="TextParagraph"
     font-family="Liberation Sans, sans-serif"
     font-size="353px"
     font-weight="400"
     id="tspan442"><tspan
       class="TextPosition"
       x="1167"
       y="12866"
       id="tspan440"><tspan
         fill="rgb(0,0,0)"
         stroke="none"
         style="white-space: pre"
         id="tspan438">0</tspan></tspan></tspan></text>
 <text
   class="SVGTextShape"
   id="text452"><tspan
     class="TextParagraph"
     font-family="Liberation Sans, sans-serif"
     font-size="353px"
     font-weight="400"
     id="tspan450"><tspan
       class="TextPosition"
       x="1167"
       y="10803"
       id="tspan448"><tspan
         fill="rgb(0,0,0)"
         stroke="none"
         style="white-space: pre"
         id="tspan446">5</tspan></tspan></tspan></text>
 <text
   class="SVGTextShape"
   id="text460"><tspan
     class="TextParagraph"
     font-family="Liberation Sans, sans-serif"
     font-size="353px"
     font-weight="400"
     id="tspan458"><tspan
       class="TextPosition"
       x="982"
       y="8740"
       id="tspan456"><tspan
         fill="rgb(0,0,0)"
         stroke="none"
         style="white-space: pre"
         id="tspan454">10</tspan></tspan></tspan></text>
 <text
   class="SVGTextShape"
   id="text468"><tspan
     class="TextParagraph"
     font-family="Liberation Sans, sans-serif"
     font-size="353px"
     font-weight="400"
     id="tspan466"><tspan
       class="TextPosition"
       x="982"
       y="6678"
       id="tspan464"><tspan
         fill="rgb(0,0,0)"
         stroke="none"
         style="white-space: pre"
         id="tspan462">15</tspan></tspan></tspan></text>
 <text
   class="SVGTextShape"
   id="text476"><tspan
     class="TextParagraph"
     font-family="Liberation Sans, sans-serif"
     font-size="353px"
     font-weight="400"
     id="tspan474"><tspan
       class="TextPosition"
       x="982"
       y="4615"
       id="tspan472"><tspan
         fill="rgb(0,0,0)"
         stroke="none"
         style="white-space: pre"
         id="tspan470">20</tspan></tspan></tspan></text>
 <text
   class="SVGTextShape"
   id="text484"><tspan
     class="TextParagraph"
     font-family="Liberation Sans, sans-serif"
     font-size="353px"
     font-weight="400"
     id="tspan482"><tspan
       class="TextPosition"
       x="982"
       y="2552"
       id="tspan480"><tspan
         fill="rgb(0,0,0)"
         stroke="none"
         style="white-space: pre"
         id="tspan478">25</tspan></tspan></tspan></text>
 <text
   class="SVGTextShape"
   id="text492"><tspan
     class="TextParagraph"
     font-family="Liberation Sans, sans-serif"
     font-size="459px"
     font-weight="400"
     id="tspan490"><tspan
       class="TextPosition"
       x="8377"
       y="865"
       id="tspan488"><tspan
         fill="rgb(0,0,0)"
         stroke="none"
         style="white-space: pre"
         id="tspan486">iPad - Ratings by Heuristic and Rater</tspan></tspan></tspan></text>
 <text
   class="SVGTextShape"
   id="text506"><tspan
     class="TextParagraph"
     font-family="Liberation Sans, sans-serif"
     font-size="388px"
     font-weight="400"
     id="tspan498"><tspan
       class="TextPosition"
       x="10213"
       y="1496"
       id="tspan496"><tspan
         fill="rgb(0,0,0)"
         stroke="none"
         style="white-space: pre"
         id="tspan494">Morrison - Left bar</tspan></tspan></tspan><tspan
     class="TextParagraph"
     font-family="Liberation Sans, sans-serif"
     font-size="388px"
     font-weight="400"
     id="tspan504"><tspan
       class="TextPosition"
       x="10213"
       y="1946"
       id="tspan502"><tspan
         fill="rgb(0,0,0)"
         stroke="none"
         style="white-space: pre"
         id="tspan500">Fussell - Right bar</tspan></tspan></tspan></text>
 <path
   fill="rgb(180,228,150)"
   stroke="none"
   d="M 20822,8458 L 20716,8458 20716,8247 20927,8247 20927,8458 20822,8458 Z"
   id="path508" />
 <path
   fill="rgb(235,240,105)"
   stroke="none"
   d="M 20822,7960 L 20716,7960 20716,7749 20927,7749 20927,7960 20822,7960 Z"
   id="path510" />
 <path
   fill="rgb(255,193,112)"
   stroke="none"
   d="M 20822,7463 L 20716,7463 20716,7252 20927,7252 20927,7463 20822,7463 Z"
   id="path512" />
 <path
   fill="rgb(255,102,102)"
   stroke="none"
   d="M 20822,6965 L 20716,6965 20716,6754 20927,6754 20927,6965 20822,6965 Z"
   id="path514" />
 <text
   class="SVGTextShape"
   id="text522"><tspan
     class="TextParagraph"
     font-family="Liberation Sans, sans-serif"
     font-size="353px"
     font-weight="400"
     id="tspan520"><tspan
       class="TextPosition"
       x="21027"
       y="6979"
       id="tspan518"><tspan
         fill="rgb(0,0,0)"
         stroke="none"
         style="white-space: pre"
         id="tspan516">N/A</tspan></tspan></tspan></text>
 <text
   class="SVGTextShape"
   id="text530"><tspan
     class="TextParagraph"
     font-family="Liberation Sans, sans-serif"
     font-size="353px"
     font-weight="400"
     id="tspan528"><tspan
       class="TextPosition"
       x="21027"
       y="7477"
       id="tspan526"><tspan
         fill="rgb(0,0,0)"
         stroke="none"
         style="white-space: pre"
         id="tspan524">No</tspan></tspan></tspan></text>
 <text
   class="SVGTextShape"
   id="text538"><tspan
     class="TextParagraph"
     font-family="Liberation Sans, sans-serif"
     font-size="353px"
     font-weight="400"
     id="tspan536"><tspan
       class="TextPosition"
       x="21027"
       y="7974"
       id="tspan534"><tspan
         fill="rgb(0,0,0)"
         stroke="none"
         style="white-space: pre"
         id="tspan532">Somewhat</tspan></tspan></tspan></text>
 <text
   class="SVGTextShape"
   id="text546"><tspan
     class="TextParagraph"
     font-family="Liberation Sans, sans-serif"
     font-size="353px"
     font-weight="400"
     id="tspan544"><tspan
       class="TextPosition"
       x="21027"
       y="8472"
       id="tspan542"><tspan
         fill="rgb(0,0,0)"
         stroke="none"
         style="white-space: pre"
         id="tspan540">Yes</tspan></tspan></tspan></text>
 <text
   class="SVGTextShape"
   transform="rotate(-90 585 9261)"
   id="text554"><tspan
     class="TextParagraph"
     font-family="Liberation Sans, sans-serif"
     font-size="318px"
     font-weight="400"
     id="tspan552"><tspan
       class="TextPosition"
       x="585"
       y="9261"
       id="tspan550"><tspan
         fill="rgb(0,0,0)"
         stroke="none"
         style="white-space: pre"
         id="tspan548"># Ratings</tspan></tspan></tspan></text>
<text
   class="SVGTextShape"
   transform="rotate(-90)"
   id="text378-3"
   x="-23159.09"
   y="-7532.5386"><tspan
     class="TextParagraph"
     font-family="'Liberation Sans', sans-serif"
     font-size="353px"
     font-weight="400"
     id="tspan376-3"><tspan
       class="TextPosition"
       x="-14749.097"
       y="7049.4619"
       id="tspan374-8"><tspan
         fill="#000000"
         stroke="none"
         style="white-space:pre"
         id="tspan372-3">&amp; Flexibility</tspan></tspan></tspan></text><text
   class="SVGTextShape"
   transform="rotate(-90)"
   id="text370"
   x="-21492.5"
   y="-8257.7256"><tspan
     class="TextParagraph"
     font-family="'Liberation Sans', sans-serif"
     font-size="353px"
     font-weight="400"
     id="tspan362"><tspan
       class="TextPosition"
       x="-14887.505"
       y="6615.2744"
       id="tspan360"><tspan
         fill="#000000"
         stroke="none"
         style="white-space:pre"
         id="tspan358">Consistency </tspan></tspan></tspan><tspan
     class="TextParagraph"
     font-family="'Liberation Sans', sans-serif"
     font-size="353px"
     font-weight="400"
     id="tspan368"><tspan
       class="TextPosition"
       x="-14490.505"
       y="6562.2744"
       id="tspan366"><tspan
         fill="#000000"
         stroke="none"
         style="white-space:pre"
         id="tspan364" /></tspan></tspan></text></svg>
