<?xml version="1.0" encoding="UTF-8"?>
<!DOCTYPE svg PUBLIC "-//W3C//DTD SVG 1.1//EN" "http://www.w3.org/Graphics/SVG/1.1/DTD/svg11.dtd">
<svg width="102mm" height="102mm" viewBox="0 0 10200 10200" version="1.1" xmlns="http://www.w3.org/2000/svg" xmlns:xlink="http://www.w3.org/1999/xlink" stroke-width="28.222" stroke-linejoin="round" xml:space="preserve">
 <path fill="rgb(255,255,255)" stroke="none" d="M 5067,10147 L -13,10147 -13,-13 10147,-13 10147,10147 5067,10147 Z"/>
 <path fill="rgb(180,228,150)" stroke="none" d="M 5014,2065 C 4599,2065 4187,2130 3792,2258 3398,2386 3026,2576 2691,2819 2355,3063 2060,3358 1816,3694 1573,4029 1383,4401 1255,4795 1127,5189 1062,5601 1062,6015 1062,6430 1127,6842 1255,7237 1383,7631 1573,8003 1816,8338 2060,8674 2355,8969 2691,9213 3023,9454 3391,9642 3781,9771 L 4192,8519 C 3932,8433 3686,8308 3465,8147 3241,7984 3045,7788 2882,7564 2720,7340 2593,7093 2508,6830 2422,6567 2379,6292 2379,6016 2379,5739 2422,5464 2508,5201 2593,4939 2720,4692 2882,4468 3045,4244 3241,4048 3465,3885 3689,3723 3936,3596 4199,3511 4462,3425 4737,3382 5014,3382 L 5014,2065 Z"/>
 <path fill="none" stroke="rgb(255,255,255)" stroke-width="102" stroke-linejoin="round" d="M 5014,2065 C 4599,2065 4187,2130 3792,2258 3398,2386 3026,2576 2691,2819 2355,3063 2060,3358 1816,3694 1573,4029 1383,4401 1255,4795 1127,5189 1062,5601 1062,6015 1062,6430 1127,6842 1255,7237 1383,7631 1573,8003 1816,8338 2060,8674 2355,8969 2691,9213 3023,9454 3391,9642 3781,9771 L 4192,8519 C 3932,8433 3686,8308 3465,8147 3241,7984 3045,7788 2882,7564 2720,7340 2593,7093 2508,6830 2422,6567 2379,6292 2379,6016 2379,5739 2422,5464 2508,5201 2593,4939 2720,4692 2882,4468 3045,4244 3241,4048 3465,3885 3689,3723 3936,3596 4199,3511 4462,3425 4737,3382 5014,3382 L 5014,2065 Z"/>
 <path fill="rgb(235,240,105)" stroke="none" d="M 3781,9771 C 3785,9772 3789,9773 3792,9774 4187,9902 4599,9968 5013,9968 5427,9968 5839,9902 6234,9774 6628,9646 7000,9456 7335,9213 7618,9007 7873,8765 8092,8492 L 7066,7667 C 6919,7848 6750,8010 6561,8147 6337,8309 6090,8436 5827,8521 5564,8607 5289,8650 5013,8650 4737,8650 4462,8607 4199,8521 4197,8520 4195,8520 4192,8519 L 3781,9771 Z"/>
 <path fill="none" stroke="rgb(255,255,255)" stroke-width="102" stroke-linejoin="round" d="M 3781,9771 C 3785,9772 3789,9773 3792,9774 4187,9902 4599,9968 5013,9968 5427,9968 5839,9902 6234,9774 6628,9646 7000,9456 7335,9213 7618,9007 7873,8765 8092,8492 L 7066,7667 C 6919,7848 6750,8010 6561,8147 6337,8309 6090,8436 5827,8521 5564,8607 5289,8650 5013,8650 4737,8650 4462,8607 4199,8521 4197,8520 4195,8520 4192,8519 L 3781,9771 Z"/>
 <path fill="rgb(255,193,112)" stroke="none" d="M 8092,8492 C 8133,8442 8172,8391 8210,8338 8453,8003 8643,7631 8771,7237 8899,6842 8965,6430 8965,6016 8965,5769 8941,5522 8895,5279 L 7601,5525 C 7632,5687 7647,5851 7647,6016 7647,6292 7604,6567 7518,6830 7433,7093 7306,7340 7144,7564 7119,7599 7093,7633 7066,7667 L 8092,8492 Z"/>
 <path fill="none" stroke="rgb(255,255,255)" stroke-width="102" stroke-linejoin="round" d="M 8092,8492 C 8133,8442 8172,8391 8210,8338 8453,8003 8643,7631 8771,7237 8899,6842 8965,6430 8965,6016 8965,5769 8941,5522 8895,5279 L 7601,5525 C 7632,5687 7647,5851 7647,6016 7647,6292 7604,6567 7518,6830 7433,7093 7306,7340 7144,7564 7119,7599 7093,7633 7066,7667 L 8092,8492 Z"/>
 <path fill="rgb(255,102,102)" stroke="none" d="M 8895,5279 C 8864,5115 8823,4954 8771,4795 8643,4401 8453,4029 8210,3694 7966,3358 7671,3063 7335,2819 7000,2576 6628,2386 6234,2258 5839,2130 5427,2065 5014,2065 L 5014,3382 C 5289,3382 5564,3425 5827,3511 6090,3596 6337,3723 6561,3885 6785,4048 6981,4244 7144,4468 7306,4692 7433,4939 7518,5201 7553,5307 7580,5415 7601,5525 L 8895,5279 Z"/>
 <path fill="none" stroke="rgb(255,255,255)" stroke-width="102" stroke-linejoin="round" d="M 8895,5279 C 8864,5115 8823,4954 8771,4795 8643,4401 8453,4029 8210,3694 7966,3358 7671,3063 7335,2819 7000,2576 6628,2386 6234,2258 5839,2130 5427,2065 5014,2065 L 5014,3382 C 5289,3382 5564,3425 5827,3511 6090,3596 6337,3723 6561,3885 6785,4048 6981,4244 7144,4468 7306,4692 7433,4939 7518,5201 7553,5307 7580,5415 7601,5525 L 8895,5279 Z"/>
 <path fill="rgb(180,228,150)" stroke="none" d="M 5014,3382 C 4737,3382 4462,3425 4199,3511 3936,3596 3689,3723 3465,3885 3241,4048 3045,4244 2882,4468 2720,4692 2593,4939 2508,5201 2422,5464 2379,5739 2379,6016 2379,6292 2422,6567 2508,6830 2593,7093 2720,7340 2882,7564 3045,7788 3241,7984 3465,8147 3689,8309 3936,8436 4199,8521 4438,8599 4687,8642 4938,8649 L 4976,7332 C 4850,7329 4726,7307 4606,7268 4475,7226 4351,7162 4239,7081 4127,7000 4029,6902 3948,6790 3867,6678 3803,6554 3761,6423 3718,6291 3696,6154 3696,6016 3696,5877 3718,5740 3761,5608 3803,5477 3867,5353 3948,5241 4029,5129 4127,5032 4239,4951 4351,4870 4475,4806 4606,4764 4738,4721 4875,4699 5014,4699 L 5014,3382 Z"/>
 <path fill="none" stroke="rgb(255,255,255)" stroke-width="102" stroke-linejoin="round" d="M 5014,3382 C 4737,3382 4462,3425 4199,3511 3936,3596 3689,3723 3465,3885 3241,4048 3045,4244 2882,4468 2720,4692 2593,4939 2508,5201 2422,5464 2379,5739 2379,6016 2379,6292 2422,6567 2508,6830 2593,7093 2720,7340 2882,7564 3045,7788 3241,7984 3465,8147 3689,8309 3936,8436 4199,8521 4438,8599 4687,8642 4938,8649 L 4976,7332 C 4850,7329 4726,7307 4606,7268 4475,7226 4351,7162 4239,7081 4127,7000 4029,6902 3948,6790 3867,6678 3803,6554 3761,6423 3718,6291 3696,6154 3696,6016 3696,5877 3718,5740 3761,5608 3803,5477 3867,5353 3948,5241 4029,5129 4127,5032 4239,4951 4351,4870 4475,4806 4606,4764 4738,4721 4875,4699 5014,4699 L 5014,3382 Z"/>
 <path fill="rgb(235,240,105)" stroke="none" d="M 4938,8649 C 4963,8650 4988,8650 5013,8650 5289,8650 5564,8607 5827,8521 5925,8489 6022,8451 6116,8408 L 5564,7212 C 5517,7233 5469,7252 5420,7268 5288,7311 5151,7333 5014,7333 5001,7333 4988,7333 4976,7332 L 4938,8649 Z"/>
 <path fill="none" stroke="rgb(255,255,255)" stroke-width="102" stroke-linejoin="round" d="M 4938,8649 C 4963,8650 4988,8650 5013,8650 5289,8650 5564,8607 5827,8521 5925,8489 6022,8451 6116,8408 L 5564,7212 C 5517,7233 5469,7252 5420,7268 5288,7311 5151,7333 5014,7333 5001,7333 4988,7333 4976,7332 L 4938,8649 Z"/>
 <path fill="rgb(255,193,112)" stroke="none" d="M 6116,8408 C 6273,8336 6422,8248 6561,8147 6785,7984 6981,7788 7144,7564 7238,7435 7320,7298 7389,7154 L 6201,6585 C 6166,6657 6125,6725 6078,6790 5997,6902 5899,7000 5787,7081 5717,7132 5643,7176 5564,7212 L 6116,8408 Z"/>
 <path fill="none" stroke="rgb(255,255,255)" stroke-width="102" stroke-linejoin="round" d="M 6116,8408 C 6273,8336 6422,8248 6561,8147 6785,7984 6981,7788 7144,7564 7238,7435 7320,7298 7389,7154 L 6201,6585 C 6166,6657 6125,6725 6078,6790 5997,6902 5899,7000 5787,7081 5717,7132 5643,7176 5564,7212 L 6116,8408 Z"/>
 <path fill="rgb(255,102,102)" stroke="none" d="M 7389,7154 C 7439,7049 7482,6940 7518,6830 7604,6567 7647,6292 7647,6016 7647,5739 7604,5464 7518,5201 7433,4939 7306,4692 7144,4468 6981,4244 6785,4048 6561,3885 6337,3723 6090,3596 5827,3511 5564,3425 5289,3382 5014,3382 L 5013,3382 5014,4699 5014,4699 C 5151,4699 5288,4721 5420,4764 5551,4806 5675,4870 5787,4951 5899,5032 5997,5129 6078,5241 6159,5353 6223,5477 6265,5608 6308,5740 6330,5877 6330,6016 6330,6154 6308,6291 6265,6423 6247,6478 6226,6532 6201,6585 L 7389,7154 Z"/>
 <path fill="none" stroke="rgb(255,255,255)" stroke-width="102" stroke-linejoin="round" d="M 7389,7154 C 7439,7049 7482,6940 7518,6830 7604,6567 7647,6292 7647,6016 7647,5739 7604,5464 7518,5201 7433,4939 7306,4692 7144,4468 6981,4244 6785,4048 6561,3885 6337,3723 6090,3596 5827,3511 5564,3425 5289,3382 5014,3382 L 5013,3382 5014,4699 5014,4699 C 5151,4699 5288,4721 5420,4764 5551,4806 5675,4870 5787,4951 5899,5032 5997,5129 6078,5241 6159,5353 6223,5477 6265,5608 6308,5740 6330,5877 6330,6016 6330,6154 6308,6291 6265,6423 6247,6478 6226,6532 6201,6585 L 7389,7154 Z"/>
 <text class="SVGTextShape"><tspan class="TextParagraph" font-family="Liberation Sans, sans-serif" font-size="353px" font-weight="400"><tspan class="TextPosition" x="1576" y="5617"><tspan fill="rgb(0,0,0)" stroke="none" style="white-space: pre">49</tspan></tspan></tspan></text>
 <text class="SVGTextShape"><tspan class="TextParagraph" font-family="Liberation Sans, sans-serif" font-size="353px" font-weight="400"><tspan class="TextPosition" x="5765" y="9294"><tspan fill="rgb(0,0,0)" stroke="none" style="white-space: pre">21</tspan></tspan></tspan></text>
 <text class="SVGTextShape"><tspan class="TextParagraph" font-family="Liberation Sans, sans-serif" font-size="353px" font-weight="400"><tspan class="TextPosition" x="8023" y="6935"><tspan fill="rgb(0,0,0)" stroke="none" style="white-space: pre">15</tspan></tspan></tspan></text>
 <text class="SVGTextShape"><tspan class="TextParagraph" font-family="Liberation Sans, sans-serif" font-size="353px" font-weight="400"><tspan class="TextPosition" x="6929" y="3600"><tspan fill="rgb(0,0,0)" stroke="none" style="white-space: pre">24</tspan></tspan></tspan></text>
 <text class="SVGTextShape"><tspan class="TextParagraph" font-family="Liberation Sans, sans-serif" font-size="353px" font-weight="400"><tspan class="TextPosition" x="2853" y="6108"><tspan fill="rgb(0,0,0)" stroke="none" style="white-space: pre">54</tspan></tspan></tspan></text>
 <text class="SVGTextShape"><tspan class="TextParagraph" font-family="Liberation Sans, sans-serif" font-size="353px" font-weight="400"><tspan class="TextPosition" x="5316" y="8072"><tspan fill="rgb(0,0,0)" stroke="none" style="white-space: pre">8</tspan></tspan></tspan></text>
 <text class="SVGTextShape"><tspan class="TextParagraph" font-family="Liberation Sans, sans-serif" font-size="353px" font-weight="400"><tspan class="TextPosition" x="6216" y="7544"><tspan fill="rgb(0,0,0)" stroke="none" style="white-space: pre">12</tspan></tspan></tspan></text>
 <text class="SVGTextShape"><tspan class="TextParagraph" font-family="Liberation Sans, sans-serif" font-size="353px" font-weight="400"><tspan class="TextPosition" x="6501" y="5083"><tspan fill="rgb(0,0,0)" stroke="none" style="white-space: pre">35</tspan></tspan></tspan></text>
 <text class="SVGTextShape"><tspan class="TextParagraph" font-family="Liberation Sans, sans-serif" font-size="459px" font-weight="400"><tspan class="TextPosition" x="2940" y="764"><tspan fill="rgb(0,0,0)" stroke="none" style="white-space: pre">iPhone - Overall Scores</tspan></tspan></tspan></text>
 <text class="SVGTextShape"><tspan class="TextParagraph" font-family="Liberation Sans, sans-serif" font-size="388px" font-weight="400"><tspan class="TextPosition" x="3284" y="1293"><tspan fill="rgb(0,0,0)" stroke="none" style="white-space: pre">Morrison - Outer ring</tspan></tspan></tspan><tspan class="TextParagraph" font-family="Liberation Sans, sans-serif" font-size="388px" font-weight="400"><tspan class="TextPosition" x="3470" y="1743"><tspan fill="rgb(0,0,0)" stroke="none" style="white-space: pre">Fussell - Inner ring</tspan></tspan></tspan></text>
</svg>