<?xml version="1.0" encoding="UTF-8" standalone="no"?>
<svg
   width="229mm"
   height="153mm"
   viewBox="0 0 22900 15300"
   version="1.1"
   stroke-width="28.222"
   stroke-linejoin="round"
   xml:space="preserve"
   id="svg554"
   sodipodi:docname="oneplus-pad_ratings.svg"
   inkscape:version="1.1.2 (b8e25be833, 2022-02-05)"
   xmlns:inkscape="http://www.inkscape.org/namespaces/inkscape"
   xmlns:sodipodi="http://sodipodi.sourceforge.net/DTD/sodipodi-0.dtd"
   xmlns="http://www.w3.org/2000/svg"
   xmlns:svg="http://www.w3.org/2000/svg"><defs
   id="defs558" /><sodipodi:namedview
   id="namedview556"
   pagecolor="#ffffff"
   bordercolor="#111111"
   borderopacity="1"
   inkscape:pageshadow="0"
   inkscape:pageopacity="0"
   inkscape:pagecheckerboard="1"
   inkscape:document-units="mm"
   showgrid="false"
   inkscape:zoom="1.2223981"
   inkscape:cx="184.47345"
   inkscape:cy="346.85918"
   inkscape:window-width="1920"
   inkscape:window-height="1017"
   inkscape:window-x="-8"
   inkscape:window-y="-8"
   inkscape:window-maximized="1"
   inkscape:current-layer="svg554" />
 <path
   fill="rgb(255,255,255)"
   stroke="none"
   d="M 11417,15227 L -13,15227 -13,-13 22847,-13 22847,15227 11417,15227 Z"
   id="path2" /><text
   class="SVGTextShape"
   transform="rotate(-90)"
   id="text378-3"
   x="-23142.342"
   y="-7542.813"><tspan
     class="TextParagraph"
     font-family="'Liberation Sans', sans-serif"
     font-size="353px"
     font-weight="400"
     id="tspan376-3"><tspan
       class="TextPosition"
       x="-14732.345"
       y="7039.1875"
       id="tspan374-8"><tspan
         fill="#000000"
         stroke="none"
         style="white-space:pre"
         id="tspan372-3">&amp; Flexibility</tspan></tspan></tspan></text>
 <path
   fill="none"
   stroke="rgb(179,179,179)"
   stroke-linejoin="round"
   d="M 10967,12718 L 1602,12718 1602,2434 20331,2434 20331,12718 10967,12718 Z"
   id="path4" />
 <path
   fill="none"
   stroke="rgb(179,179,179)"
   stroke-linejoin="round"
   d="M 20330,12717 L 1602,12717"
   id="path6" />
 <path
   fill="none"
   stroke="rgb(179,179,179)"
   stroke-linejoin="round"
   d="M 20330,10660 L 1602,10660"
   id="path8" />
 <path
   fill="none"
   stroke="rgb(179,179,179)"
   stroke-linejoin="round"
   d="M 20330,8603 L 1602,8603"
   id="path10" />
 <path
   fill="none"
   stroke="rgb(179,179,179)"
   stroke-linejoin="round"
   d="M 20330,6547 L 1602,6547"
   id="path12" />
 <path
   fill="none"
   stroke="rgb(179,179,179)"
   stroke-linejoin="round"
   d="M 20330,4490 L 1602,4490"
   id="path14" />
 <path
   fill="none"
   stroke="rgb(179,179,179)"
   stroke-linejoin="round"
   d="M 20330,2433 L 1602,2433"
   id="path16" />
 <path
   fill="none"
   stroke="rgb(179,179,179)"
   stroke-linejoin="round"
   d="M 1602,12867 L 1602,12717"
   id="path18" />
 <path
   fill="none"
   stroke="rgb(179,179,179)"
   stroke-linejoin="round"
   d="M 1602,12867 L 1602,12717"
   id="path20" />
 <path
   fill="none"
   stroke="rgb(179,179,179)"
   stroke-linejoin="round"
   d="M 2137,12867 L 2137,12717"
   id="path22" />
 <path
   fill="none"
   stroke="rgb(179,179,179)"
   stroke-linejoin="round"
   d="M 2137,12867 L 2137,12717"
   id="path24" />
 <path
   fill="none"
   stroke="rgb(179,179,179)"
   stroke-linejoin="round"
   d="M 2672,12867 L 2672,12717"
   id="path26" />
 <path
   fill="none"
   stroke="rgb(179,179,179)"
   stroke-linejoin="round"
   d="M 2672,12867 L 2672,12717"
   id="path28" />
 <path
   fill="none"
   stroke="rgb(179,179,179)"
   stroke-linejoin="round"
   d="M 3207,12867 L 3207,12717"
   id="path30" />
 <path
   fill="none"
   stroke="rgb(179,179,179)"
   stroke-linejoin="round"
   d="M 3207,12867 L 3207,12717"
   id="path32" />
 <path
   fill="none"
   stroke="rgb(179,179,179)"
   stroke-linejoin="round"
   d="M 3742,12867 L 3742,12717"
   id="path34" />
 <path
   fill="none"
   stroke="rgb(179,179,179)"
   stroke-linejoin="round"
   d="M 3742,12867 L 3742,12717"
   id="path36" />
 <path
   fill="none"
   stroke="rgb(179,179,179)"
   stroke-linejoin="round"
   d="M 4277,12867 L 4277,12717"
   id="path38" />
 <path
   fill="none"
   stroke="rgb(179,179,179)"
   stroke-linejoin="round"
   d="M 4277,12867 L 4277,12717"
   id="path40" />
 <path
   fill="none"
   stroke="rgb(179,179,179)"
   stroke-linejoin="round"
   d="M 4812,12867 L 4812,12717"
   id="path42" />
 <path
   fill="none"
   stroke="rgb(179,179,179)"
   stroke-linejoin="round"
   d="M 4812,12867 L 4812,12717"
   id="path44" />
 <path
   fill="none"
   stroke="rgb(179,179,179)"
   stroke-linejoin="round"
   d="M 5347,12867 L 5347,12717"
   id="path46" />
 <path
   fill="none"
   stroke="rgb(179,179,179)"
   stroke-linejoin="round"
   d="M 5347,12867 L 5347,12717"
   id="path48" />
 <path
   fill="none"
   stroke="rgb(179,179,179)"
   stroke-linejoin="round"
   d="M 5883,12867 L 5883,12717"
   id="path50" />
 <path
   fill="none"
   stroke="rgb(179,179,179)"
   stroke-linejoin="round"
   d="M 5883,12867 L 5883,12717"
   id="path52" />
 <path
   fill="none"
   stroke="rgb(179,179,179)"
   stroke-linejoin="round"
   d="M 6418,12867 L 6418,12717"
   id="path54" />
 <path
   fill="none"
   stroke="rgb(179,179,179)"
   stroke-linejoin="round"
   d="M 6418,12867 L 6418,12717"
   id="path56" />
 <path
   fill="none"
   stroke="rgb(179,179,179)"
   stroke-linejoin="round"
   d="M 6953,12867 L 6953,12717"
   id="path58" />
 <path
   fill="none"
   stroke="rgb(179,179,179)"
   stroke-linejoin="round"
   d="M 6953,12867 L 6953,12717"
   id="path60" />
 <path
   fill="none"
   stroke="rgb(179,179,179)"
   stroke-linejoin="round"
   d="M 7488,12867 L 7488,12717"
   id="path62" />
 <path
   fill="none"
   stroke="rgb(179,179,179)"
   stroke-linejoin="round"
   d="M 7488,12867 L 7488,12717"
   id="path64" />
 <path
   fill="none"
   stroke="rgb(179,179,179)"
   stroke-linejoin="round"
   d="M 8023,12867 L 8023,12717"
   id="path66" />
 <path
   fill="none"
   stroke="rgb(179,179,179)"
   stroke-linejoin="round"
   d="M 8023,12867 L 8023,12717"
   id="path68" />
 <path
   fill="none"
   stroke="rgb(179,179,179)"
   stroke-linejoin="round"
   d="M 8558,12867 L 8558,12717"
   id="path70" />
 <path
   fill="none"
   stroke="rgb(179,179,179)"
   stroke-linejoin="round"
   d="M 8558,12867 L 8558,12717"
   id="path72" />
 <path
   fill="none"
   stroke="rgb(179,179,179)"
   stroke-linejoin="round"
   d="M 9093,12867 L 9093,12717"
   id="path74" />
 <path
   fill="none"
   stroke="rgb(179,179,179)"
   stroke-linejoin="round"
   d="M 9093,12867 L 9093,12717"
   id="path76" />
 <path
   fill="none"
   stroke="rgb(179,179,179)"
   stroke-linejoin="round"
   d="M 9629,12867 L 9629,12717"
   id="path78" />
 <path
   fill="none"
   stroke="rgb(179,179,179)"
   stroke-linejoin="round"
   d="M 9629,12867 L 9629,12717"
   id="path80" />
 <path
   fill="none"
   stroke="rgb(179,179,179)"
   stroke-linejoin="round"
   d="M 10164,12867 L 10164,12717"
   id="path82" />
 <path
   fill="none"
   stroke="rgb(179,179,179)"
   stroke-linejoin="round"
   d="M 10164,12867 L 10164,12717"
   id="path84" />
 <path
   fill="none"
   stroke="rgb(179,179,179)"
   stroke-linejoin="round"
   d="M 10699,12867 L 10699,12717"
   id="path86" />
 <path
   fill="none"
   stroke="rgb(179,179,179)"
   stroke-linejoin="round"
   d="M 10699,12867 L 10699,12717"
   id="path88" />
 <path
   fill="none"
   stroke="rgb(179,179,179)"
   stroke-linejoin="round"
   d="M 11234,12867 L 11234,12717"
   id="path90" />
 <path
   fill="none"
   stroke="rgb(179,179,179)"
   stroke-linejoin="round"
   d="M 11234,12867 L 11234,12717"
   id="path92" />
 <path
   fill="none"
   stroke="rgb(179,179,179)"
   stroke-linejoin="round"
   d="M 11768,12867 L 11768,12717"
   id="path94" />
 <path
   fill="none"
   stroke="rgb(179,179,179)"
   stroke-linejoin="round"
   d="M 11768,12867 L 11768,12717"
   id="path96" />
 <path
   fill="none"
   stroke="rgb(179,179,179)"
   stroke-linejoin="round"
   d="M 12303,12867 L 12303,12717"
   id="path98" />
 <path
   fill="none"
   stroke="rgb(179,179,179)"
   stroke-linejoin="round"
   d="M 12303,12867 L 12303,12717"
   id="path100" />
 <path
   fill="none"
   stroke="rgb(179,179,179)"
   stroke-linejoin="round"
   d="M 12838,12867 L 12838,12717"
   id="path102" />
 <path
   fill="none"
   stroke="rgb(179,179,179)"
   stroke-linejoin="round"
   d="M 12838,12867 L 12838,12717"
   id="path104" />
 <path
   fill="none"
   stroke="rgb(179,179,179)"
   stroke-linejoin="round"
   d="M 13374,12867 L 13374,12717"
   id="path106" />
 <path
   fill="none"
   stroke="rgb(179,179,179)"
   stroke-linejoin="round"
   d="M 13374,12867 L 13374,12717"
   id="path108" />
 <path
   fill="none"
   stroke="rgb(179,179,179)"
   stroke-linejoin="round"
   d="M 13909,12867 L 13909,12717"
   id="path110" />
 <path
   fill="none"
   stroke="rgb(179,179,179)"
   stroke-linejoin="round"
   d="M 13909,12867 L 13909,12717"
   id="path112" />
 <path
   fill="none"
   stroke="rgb(179,179,179)"
   stroke-linejoin="round"
   d="M 14444,12867 L 14444,12717"
   id="path114" />
 <path
   fill="none"
   stroke="rgb(179,179,179)"
   stroke-linejoin="round"
   d="M 14444,12867 L 14444,12717"
   id="path116" />
 <path
   fill="none"
   stroke="rgb(179,179,179)"
   stroke-linejoin="round"
   d="M 14979,12867 L 14979,12717"
   id="path118" />
 <path
   fill="none"
   stroke="rgb(179,179,179)"
   stroke-linejoin="round"
   d="M 14979,12867 L 14979,12717"
   id="path120" />
 <path
   fill="none"
   stroke="rgb(179,179,179)"
   stroke-linejoin="round"
   d="M 15514,12867 L 15514,12717"
   id="path122" />
 <path
   fill="none"
   stroke="rgb(179,179,179)"
   stroke-linejoin="round"
   d="M 15514,12867 L 15514,12717"
   id="path124" />
 <path
   fill="none"
   stroke="rgb(179,179,179)"
   stroke-linejoin="round"
   d="M 16049,12867 L 16049,12717"
   id="path126" />
 <path
   fill="none"
   stroke="rgb(179,179,179)"
   stroke-linejoin="round"
   d="M 16049,12867 L 16049,12717"
   id="path128" />
 <path
   fill="none"
   stroke="rgb(179,179,179)"
   stroke-linejoin="round"
   d="M 16584,12867 L 16584,12717"
   id="path130" />
 <path
   fill="none"
   stroke="rgb(179,179,179)"
   stroke-linejoin="round"
   d="M 16584,12867 L 16584,12717"
   id="path132" />
 <path
   fill="none"
   stroke="rgb(179,179,179)"
   stroke-linejoin="round"
   d="M 17120,12867 L 17120,12717"
   id="path134" />
 <path
   fill="none"
   stroke="rgb(179,179,179)"
   stroke-linejoin="round"
   d="M 17120,12867 L 17120,12717"
   id="path136" />
 <path
   fill="none"
   stroke="rgb(179,179,179)"
   stroke-linejoin="round"
   d="M 17655,12867 L 17655,12717"
   id="path138" />
 <path
   fill="none"
   stroke="rgb(179,179,179)"
   stroke-linejoin="round"
   d="M 17655,12867 L 17655,12717"
   id="path140" />
 <path
   fill="none"
   stroke="rgb(179,179,179)"
   stroke-linejoin="round"
   d="M 18190,12867 L 18190,12717"
   id="path142" />
 <path
   fill="none"
   stroke="rgb(179,179,179)"
   stroke-linejoin="round"
   d="M 18190,12867 L 18190,12717"
   id="path144" />
 <path
   fill="none"
   stroke="rgb(179,179,179)"
   stroke-linejoin="round"
   d="M 18725,12867 L 18725,12717"
   id="path146" />
 <path
   fill="none"
   stroke="rgb(179,179,179)"
   stroke-linejoin="round"
   d="M 18725,12867 L 18725,12717"
   id="path148" />
 <path
   fill="none"
   stroke="rgb(179,179,179)"
   stroke-linejoin="round"
   d="M 19260,12867 L 19260,12717"
   id="path150" />
 <path
   fill="none"
   stroke="rgb(179,179,179)"
   stroke-linejoin="round"
   d="M 19260,12867 L 19260,12717"
   id="path152" />
 <path
   fill="none"
   stroke="rgb(179,179,179)"
   stroke-linejoin="round"
   d="M 19795,12867 L 19795,12717"
   id="path154" />
 <path
   fill="none"
   stroke="rgb(179,179,179)"
   stroke-linejoin="round"
   d="M 19795,12867 L 19795,12717"
   id="path156" />
 <path
   fill="none"
   stroke="rgb(179,179,179)"
   stroke-linejoin="round"
   d="M 20330,12867 L 20330,12717"
   id="path158" />
 <path
   fill="none"
   stroke="rgb(179,179,179)"
   stroke-linejoin="round"
   d="M 20330,12867 L 20330,12717"
   id="path160" />
 <path
   fill="none"
   stroke="rgb(179,179,179)"
   stroke-linejoin="round"
   d="M 1602,12717 L 20330,12717"
   id="path162" />
 <path
   fill="none"
   stroke="rgb(179,179,179)"
   stroke-linejoin="round"
   d="M 1452,12717 L 1602,12717"
   id="path164" />
 <path
   fill="none"
   stroke="rgb(179,179,179)"
   stroke-linejoin="round"
   d="M 1452,12717 L 1602,12717"
   id="path166" />
 <path
   fill="none"
   stroke="rgb(179,179,179)"
   stroke-linejoin="round"
   d="M 1452,10660 L 1602,10660"
   id="path168" />
 <path
   fill="none"
   stroke="rgb(179,179,179)"
   stroke-linejoin="round"
   d="M 1452,10660 L 1602,10660"
   id="path170" />
 <path
   fill="none"
   stroke="rgb(179,179,179)"
   stroke-linejoin="round"
   d="M 1452,8603 L 1602,8603"
   id="path172" />
 <path
   fill="none"
   stroke="rgb(179,179,179)"
   stroke-linejoin="round"
   d="M 1452,8603 L 1602,8603"
   id="path174" />
 <path
   fill="none"
   stroke="rgb(179,179,179)"
   stroke-linejoin="round"
   d="M 1452,6547 L 1602,6547"
   id="path176" />
 <path
   fill="none"
   stroke="rgb(179,179,179)"
   stroke-linejoin="round"
   d="M 1452,6547 L 1602,6547"
   id="path178" />
 <path
   fill="none"
   stroke="rgb(179,179,179)"
   stroke-linejoin="round"
   d="M 1452,4490 L 1602,4490"
   id="path180" />
 <path
   fill="none"
   stroke="rgb(179,179,179)"
   stroke-linejoin="round"
   d="M 1452,4490 L 1602,4490"
   id="path182" />
 <path
   fill="none"
   stroke="rgb(179,179,179)"
   stroke-linejoin="round"
   d="M 1452,2433 L 1602,2433"
   id="path184" />
 <path
   fill="none"
   stroke="rgb(179,179,179)"
   stroke-linejoin="round"
   d="M 1452,2433 L 1602,2433"
   id="path186" />
 <path
   fill="none"
   stroke="rgb(179,179,179)"
   stroke-linejoin="round"
   d="M 1602,12717 L 1602,2433"
   id="path188" />
 <path
   fill="rgb(180,228,150)"
   stroke="none"
   d="M 19840,12717 L 20286,12717 20286,10660 19840,10660 19840,12717 Z"
   id="path190" />
 <path
   fill="rgb(180,228,150)"
   stroke="none"
   d="M 19305,12717 L 19751,12717 19751,10660 19305,10660 19305,12717 Z"
   id="path192" />
 <path
   fill="rgb(180,228,150)"
   stroke="none"
   d="M 18235,12717 L 18680,12717 18680,11894 18235,11894 18235,12717 Z"
   id="path194" />
 <path
   fill="rgb(180,228,150)"
   stroke="none"
   d="M 17699,12717 L 18145,12717 18145,12305 17699,12305 17699,12717 Z"
   id="path196" />
 <path
   fill="rgb(180,228,150)"
   stroke="none"
   d="M 16629,12717 L 17075,12717 17075,12717 16629,12717 Z"
   id="path198" />
 <path
   fill="rgb(180,228,150)"
   stroke="none"
   d="M 16094,12717 L 16540,12717 16540,12717 16094,12717 Z"
   id="path200" />
 <path
   fill="rgb(180,228,150)"
   stroke="none"
   d="M 15024,12717 L 15470,12717 15470,11071 15024,11071 15024,12717 Z"
   id="path202" />
 <path
   fill="rgb(180,228,150)"
   stroke="none"
   d="M 14489,12717 L 14934,12717 14934,12305 14489,12305 14489,12717 Z"
   id="path204" />
 <path
   fill="rgb(180,228,150)"
   stroke="none"
   d="M 13418,12717 L 13864,12717 13864,11894 13418,11894 13418,12717 Z"
   id="path206" />
 <path
   fill="rgb(180,228,150)"
   stroke="none"
   d="M 12883,12717 L 13329,12717 13329,11482 12883,11482 12883,12717 Z"
   id="path208" />
 <path
   fill="rgb(180,228,150)"
   stroke="none"
   d="M 11813,12717 L 12259,12717 12259,10660 11813,10660 11813,12717 Z"
   id="path210" />
 <path
   fill="rgb(180,228,150)"
   stroke="none"
   d="M 11279,12717 L 11724,12717 11724,9837 11279,9837 11279,12717 Z"
   id="path212" />
 <path
   fill="rgb(180,228,150)"
   stroke="none"
   d="M 10208,12717 L 10654,12717 10654,9014 10208,9014 10208,12717 Z"
   id="path214" />
 <path
   fill="rgb(180,228,150)"
   stroke="none"
   d="M 9673,12717 L 10119,12717 10119,10248 9673,10248 9673,12717 Z"
   id="path216" />
 <path
   fill="rgb(180,228,150)"
   stroke="none"
   d="M 8603,12717 L 9049,12717 9049,10660 8603,10660 8603,12717 Z"
   id="path218" />
 <path
   fill="rgb(180,228,150)"
   stroke="none"
   d="M 8068,12717 L 8514,12717 8514,10248 8068,10248 8068,12717 Z"
   id="path220" />
 <path
   fill="rgb(180,228,150)"
   stroke="none"
   d="M 6998,12717 L 7443,12717 7443,7369 6998,7369 6998,12717 Z"
   id="path222" />
 <path
   fill="rgb(180,228,150)"
   stroke="none"
   d="M 6462,12717 L 6908,12717 6908,8191 6462,8191 6462,12717 Z"
   id="path224" />
 <path
   fill="rgb(180,228,150)"
   stroke="none"
   d="M 5392,12717 L 5838,12717 5838,9837 5392,9837 5392,12717 Z"
   id="path226" />
 <path
   fill="rgb(180,228,150)"
   stroke="none"
   d="M 4857,12717 L 5303,12717 5303,10248 4857,10248 4857,12717 Z"
   id="path228" />
 <path
   fill="rgb(180,228,150)"
   stroke="none"
   d="M 3787,12717 L 4233,12717 4233,11071 3787,11071 3787,12717 Z"
   id="path230" />
 <path
   fill="rgb(180,228,150)"
   stroke="none"
   d="M 3252,12717 L 3697,12717 3697,11071 3252,11071 3252,12717 Z"
   id="path232" />
 <path
   fill="rgb(180,228,150)"
   stroke="none"
   d="M 2181,12717 L 2627,12717 2627,12717 2181,12717 Z"
   id="path234" />
 <path
   fill="rgb(180,228,150)"
   stroke="none"
   d="M 1646,12717 L 2092,12717 2092,11071 1646,11071 1646,12717 Z"
   id="path236" />
 <path
   fill="rgb(235,240,105)"
   stroke="none"
   d="M 17699,12305 L 18145,12305 18145,11894 17699,11894 17699,12305 Z"
   id="path238" />
 <path
   fill="rgb(235,240,105)"
   stroke="none"
   d="M 16629,12717 L 17075,12717 17075,12717 16629,12717 Z"
   id="path240" />
 <path
   fill="rgb(235,240,105)"
   stroke="none"
   d="M 16094,12717 L 16540,12717 16540,12717 16094,12717 Z"
   id="path242" />
 <path
   fill="rgb(235,240,105)"
   stroke="none"
   d="M 14489,12305 L 14934,12305 14934,11894 14489,11894 14489,12305 Z"
   id="path244" />
 <path
   fill="rgb(235,240,105)"
   stroke="none"
   d="M 12883,11482 L 13329,11482 13329,11071 12883,11071 12883,11482 Z"
   id="path246" />
 <path
   fill="rgb(235,240,105)"
   stroke="none"
   d="M 11813,10660 L 12259,10660 12259,9425 11813,9425 11813,10660 Z"
   id="path248" />
 <path
   fill="rgb(235,240,105)"
   stroke="none"
   d="M 11279,9837 L 11724,9837 11724,9014 11279,9014 11279,9837 Z"
   id="path250" />
 <path
   fill="rgb(235,240,105)"
   stroke="none"
   d="M 9673,10248 L 10119,10248 10119,9014 9673,9014 9673,10248 Z"
   id="path252" />
 <path
   fill="rgb(235,240,105)"
   stroke="none"
   d="M 8603,10660 L 9049,10660 9049,10248 8603,10248 8603,10660 Z"
   id="path254" />
 <path
   fill="rgb(235,240,105)"
   stroke="none"
   d="M 8068,10248 L 8514,10248 8514,9837 8068,9837 8068,10248 Z"
   id="path256" />
 <path
   fill="rgb(235,240,105)"
   stroke="none"
   d="M 6998,7369 L 7443,7369 7443,6958 6998,6958 6998,7369 Z"
   id="path258" />
 <path
   fill="rgb(235,240,105)"
   stroke="none"
   d="M 6462,8191 L 6908,8191 6908,6547 6462,6547 6462,8191 Z"
   id="path260" />
 <path
   fill="rgb(235,240,105)"
   stroke="none"
   d="M 4857,10248 L 5303,10248 5303,9425 4857,9425 4857,10248 Z"
   id="path262" />
 <path
   fill="rgb(235,240,105)"
   stroke="none"
   d="M 3252,11071 L 3697,11071 3697,10660 3252,10660 3252,11071 Z"
   id="path264" />
 <path
   fill="rgb(235,240,105)"
   stroke="none"
   d="M 2181,12717 L 2627,12717 2627,12305 2181,12305 2181,12717 Z"
   id="path266" />
 <path
   fill="rgb(235,240,105)"
   stroke="none"
   d="M 1646,11071 L 2092,11071 2092,10660 1646,10660 1646,11071 Z"
   id="path268" />
 <path
   fill="rgb(255,193,112)"
   stroke="none"
   d="M 18235,11894 L 18680,11894 18680,11071 18235,11071 18235,11894 Z"
   id="path270" />
 <path
   fill="rgb(255,193,112)"
   stroke="none"
   d="M 17699,11894 L 18145,11894 18145,10660 17699,10660 17699,11894 Z"
   id="path272" />
 <path
   fill="rgb(255,193,112)"
   stroke="none"
   d="M 16629,12717 L 17075,12717 17075,12305 16629,12305 16629,12717 Z"
   id="path274" />
 <path
   fill="rgb(255,193,112)"
   stroke="none"
   d="M 16094,12717 L 16540,12717 16540,12717 16094,12717 Z"
   id="path276" />
 <path
   fill="rgb(255,193,112)"
   stroke="none"
   d="M 14489,11894 L 14934,11894 14934,11071 14489,11071 14489,11894 Z"
   id="path278" />
 <path
   fill="rgb(255,193,112)"
   stroke="none"
   d="M 13418,11894 L 13864,11894 13864,11071 13418,11071 13418,11894 Z"
   id="path280" />
 <path
   fill="rgb(255,193,112)"
   stroke="none"
   d="M 11813,9425 L 12259,9425 12259,8603 11813,8603 11813,9425 Z"
   id="path282" />
 <path
   fill="rgb(255,193,112)"
   stroke="none"
   d="M 11279,9014 L 11724,9014 11724,8191 11279,8191 11279,9014 Z"
   id="path284" />
 <path
   fill="rgb(255,193,112)"
   stroke="none"
   d="M 8603,10248 L 9049,10248 9049,9837 8603,9837 8603,10248 Z"
   id="path286" />
 <path
   fill="rgb(255,193,112)"
   stroke="none"
   d="M 8068,9837 L 8514,9837 8514,9425 8068,9425 8068,9837 Z"
   id="path288" />
 <path
   fill="rgb(255,193,112)"
   stroke="none"
   d="M 6998,6958 L 7443,6958 7443,5312 6998,5312 6998,6958 Z"
   id="path290" />
 <path
   fill="rgb(255,193,112)"
   stroke="none"
   d="M 6462,6547 L 6908,6547 6908,4901 6462,4901 6462,6547 Z"
   id="path292" />
 <path
   fill="rgb(255,193,112)"
   stroke="none"
   d="M 5392,9837 L 5838,9837 5838,9425 5392,9425 5392,9837 Z"
   id="path294" />
 <path
   fill="rgb(255,193,112)"
   stroke="none"
   d="M 3787,11071 L 4233,11071 4233,10248 3787,10248 3787,11071 Z"
   id="path296" />
 <path
   fill="rgb(255,193,112)"
   stroke="none"
   d="M 3252,10660 L 3697,10660 3697,9837 3252,9837 3252,10660 Z"
   id="path298" />
 <path
   fill="rgb(255,193,112)"
   stroke="none"
   d="M 2181,12305 L 2627,12305 2627,11894 2181,11894 2181,12305 Z"
   id="path300" />
 <path
   fill="rgb(255,102,102)"
   stroke="none"
   d="M 18235,11071 L 18680,11071 18680,10248 18235,10248 18235,11071 Z"
   id="path302" />
 <path
   fill="rgb(255,102,102)"
   stroke="none"
   d="M 17699,10660 L 18145,10660 18145,10248 17699,10248 17699,10660 Z"
   id="path304" />
 <path
   fill="rgb(255,102,102)"
   stroke="none"
   d="M 16629,12305 L 17075,12305 17075,9014 16629,9014 16629,12305 Z"
   id="path306" />
 <path
   fill="rgb(255,102,102)"
   stroke="none"
   d="M 16094,12717 L 16540,12717 16540,9014 16094,9014 16094,12717 Z"
   id="path308" />
 <path
   fill="rgb(255,102,102)"
   stroke="none"
   d="M 15024,11071 L 15470,11071 15470,10248 15024,10248 15024,11071 Z"
   id="path310" />
 <path
   fill="rgb(255,102,102)"
   stroke="none"
   d="M 14489,11071 L 14934,11071 14934,10248 14489,10248 14489,11071 Z"
   id="path312" />
 <path
   fill="rgb(255,102,102)"
   stroke="none"
   d="M 13418,11071 L 13864,11071 13864,10248 13418,10248 13418,11071 Z"
   id="path314" />
 <path
   fill="rgb(255,102,102)"
   stroke="none"
   d="M 12883,11071 L 13329,11071 13329,10248 12883,10248 12883,11071 Z"
   id="path316" />
 <path
   fill="rgb(255,102,102)"
   stroke="none"
   d="M 11813,8603 L 12259,8603 12259,7780 11813,7780 11813,8603 Z"
   id="path318" />
 <path
   fill="rgb(255,102,102)"
   stroke="none"
   d="M 11279,8191 L 11724,8191 11724,7780 11279,7780 11279,8191 Z"
   id="path320" />
 <path
   fill="rgb(255,102,102)"
   stroke="none"
   d="M 8603,9837 L 9049,9837 9049,9425 8603,9425 8603,9837 Z"
   id="path322" />
 <path
   fill="rgb(255,102,102)"
   stroke="none"
   d="M 6998,5312 L 7443,5312 7443,3255 6998,3255 6998,5312 Z"
   id="path324" />
 <path
   fill="rgb(255,102,102)"
   stroke="none"
   d="M 6462,4901 L 6908,4901 6908,3255 6462,3255 6462,4901 Z"
   id="path326" />
 <path
   fill="rgb(255,102,102)"
   stroke="none"
   d="M 3787,10248 L 4233,10248 4233,7780 3787,7780 3787,10248 Z"
   id="path328" />
 <path
   fill="rgb(255,102,102)"
   stroke="none"
   d="M 3252,9837 L 3697,9837 3697,7780 3252,7780 3252,9837 Z"
   id="path330" />
 <path
   fill="rgb(255,102,102)"
   stroke="none"
   d="M 2181,11894 L 2627,11894 2627,10660 2181,10660 2181,11894 Z"
   id="path332" />
 <text
   class="SVGTextShape"
   transform="rotate(-90 1988 13868)"
   id="text340"><tspan
     class="TextParagraph"
     font-family="Liberation Sans, sans-serif"
     font-size="353px"
     font-weight="400"
     id="tspan338"><tspan
       class="TextPosition"
       x="1988"
       y="13868"
       id="tspan336"><tspan
         fill="rgb(0,0,0)"
         stroke="none"
         style="white-space: pre"
         id="tspan334">Setup</tspan></tspan></tspan></text>
 <text
   class="SVGTextShape"
   transform="rotate(-90 3593 14767)"
   id="text348"><tspan
     class="TextParagraph"
     font-family="Liberation Sans, sans-serif"
     font-size="353px"
     font-weight="400"
     id="tspan346"><tspan
       class="TextPosition"
       x="3593"
       y="14767"
       id="tspan344"><tspan
         fill="rgb(0,0,0)"
         stroke="none"
         style="white-space: pre"
         id="tspan342">Instructions</tspan></tspan></tspan></text>
 <text
   class="SVGTextShape"
   transform="rotate(-90 5199 14899)"
   id="text356"><tspan
     class="TextParagraph"
     font-family="Liberation Sans, sans-serif"
     font-size="353px"
     font-weight="400"
     id="tspan354"><tspan
       class="TextPosition"
       x="5199"
       y="14899"
       id="tspan352"><tspan
         fill="rgb(0,0,0)"
         stroke="none"
         style="white-space: pre"
         id="tspan350">Organization</tspan></tspan></tspan></text>
 <text
   class="SVGTextShape"
   transform="rotate(-90)"
   id="text370"
   x="-21475.752"
   y="-8268"><tspan
     class="TextParagraph"
     font-family="'Liberation Sans', sans-serif"
     font-size="353px"
     font-weight="400"
     id="tspan362"><tspan
       class="TextPosition"
       x="-14870.753"
       y="6605"
       id="tspan360"><tspan
         fill="#000000"
         stroke="none"
         style="white-space:pre"
         id="tspan358">Consistency </tspan></tspan></tspan><tspan
     class="TextParagraph"
     font-family="'Liberation Sans', sans-serif"
     font-size="353px"
     font-weight="400"
     id="tspan368"><tspan
       class="TextPosition"
       x="-14473.753"
       y="6552"
       id="tspan366"><tspan
         fill="#000000"
         stroke="none"
         style="white-space:pre"
         id="tspan364" /></tspan></tspan></text>
 <text
   class="SVGTextShape"
   transform="rotate(-90 8410 14582)"
   id="text378"><tspan
     class="TextParagraph"
     font-family="Liberation Sans, sans-serif"
     font-size="353px"
     font-weight="400"
     id="tspan376"><tspan
       class="TextPosition"
       x="8410"
       y="14582"
       id="tspan374"><tspan
         fill="rgb(0,0,0)"
         stroke="none"
         style="white-space: pre"
         id="tspan372">Integration</tspan></tspan></tspan></text>
 <text
   class="SVGTextShape"
   transform="rotate(-90 10015 14582)"
   id="text386"><tspan
     class="TextParagraph"
     font-family="Liberation Sans, sans-serif"
     font-size="353px"
     font-weight="400"
     id="tspan384"><tspan
       class="TextPosition"
       x="10015"
       y="14582"
       id="tspan382"><tspan
         fill="rgb(0,0,0)"
         stroke="none"
         style="white-space: pre"
         id="tspan380">Interaction</tspan></tspan></tspan></text>
 <text
   class="SVGTextShape"
   transform="rotate(-90 11620 14185)"
   id="text394"><tspan
     class="TextParagraph"
     font-family="Liberation Sans, sans-serif"
     font-size="353px"
     font-weight="400"
     id="tspan392"><tspan
       class="TextPosition"
       x="11620"
       y="14185"
       id="tspan390"><tspan
         fill="rgb(0,0,0)"
         stroke="none"
         style="white-space: pre"
         id="tspan388">Comfort</tspan></tspan></tspan></text>
 <text
   class="SVGTextShape"
   transform="rotate(-90 13225 14476)"
   id="text402"><tspan
     class="TextParagraph"
     font-family="Liberation Sans, sans-serif"
     font-size="353px"
     font-weight="400"
     id="tspan400"><tspan
       class="TextPosition"
       x="13225"
       y="14476"
       id="tspan398"><tspan
         fill="rgb(0,0,0)"
         stroke="none"
         style="white-space: pre"
         id="tspan396">Feedback</tspan></tspan></tspan></text>
 <text
   class="SVGTextShape"
   transform="rotate(-90 14830 14926)"
   id="text410"><tspan
     class="TextParagraph"
     font-family="Liberation Sans, sans-serif"
     font-size="353px"
     font-weight="400"
     id="tspan408"><tspan
       class="TextPosition"
       x="14830"
       y="14926"
       id="tspan406"><tspan
         fill="rgb(0,0,0)"
         stroke="none"
         style="white-space: pre"
         id="tspan404">Intuitiveness</tspan></tspan></tspan></text>
 <text
   class="SVGTextShape"
   transform="rotate(-90 16436 14952)"
   id="text418"><tspan
     class="TextParagraph"
     font-family="Liberation Sans, sans-serif"
     font-size="353px"
     font-weight="400"
     id="tspan416"><tspan
       class="TextPosition"
       x="16436"
       y="14952"
       id="tspan414"><tspan
         fill="rgb(0,0,0)"
         stroke="none"
         style="white-space: pre"
         id="tspan412">Collaboration</tspan></tspan></tspan></text>
 <text
   class="SVGTextShape"
   transform="rotate(-90 18041 14132)"
   id="text426"><tspan
     class="TextParagraph"
     font-family="Liberation Sans, sans-serif"
     font-size="353px"
     font-weight="400"
     id="tspan424"><tspan
       class="TextPosition"
       x="18041"
       y="14132"
       id="tspan422"><tspan
         fill="rgb(0,0,0)"
         stroke="none"
         style="white-space: pre"
         id="tspan420">Privacy</tspan></tspan></tspan></text>
 <text
   class="SVGTextShape"
   transform="rotate(-90 19647 15164)"
   id="text434"><tspan
     class="TextParagraph"
     font-family="Liberation Sans, sans-serif"
     font-size="353px"
     font-weight="400"
     id="tspan432"><tspan
       class="TextPosition"
       x="19647"
       y="15164"
       id="tspan430"><tspan
         fill="rgb(0,0,0)"
         stroke="none"
         style="white-space: pre"
         id="tspan428">Maintainability</tspan></tspan></tspan></text>
 <text
   class="SVGTextShape"
   id="text442"><tspan
     class="TextParagraph"
     font-family="Liberation Sans, sans-serif"
     font-size="353px"
     font-weight="400"
     id="tspan440"><tspan
       class="TextPosition"
       x="1167"
       y="12838"
       id="tspan438"><tspan
         fill="rgb(0,0,0)"
         stroke="none"
         style="white-space: pre"
         id="tspan436">0</tspan></tspan></tspan></text>
 <text
   class="SVGTextShape"
   id="text450"><tspan
     class="TextParagraph"
     font-family="Liberation Sans, sans-serif"
     font-size="353px"
     font-weight="400"
     id="tspan448"><tspan
       class="TextPosition"
       x="1167"
       y="10781"
       id="tspan446"><tspan
         fill="rgb(0,0,0)"
         stroke="none"
         style="white-space: pre"
         id="tspan444">5</tspan></tspan></tspan></text>
 <text
   class="SVGTextShape"
   id="text458"><tspan
     class="TextParagraph"
     font-family="Liberation Sans, sans-serif"
     font-size="353px"
     font-weight="400"
     id="tspan456"><tspan
       class="TextPosition"
       x="982"
       y="8724"
       id="tspan454"><tspan
         fill="rgb(0,0,0)"
         stroke="none"
         style="white-space: pre"
         id="tspan452">10</tspan></tspan></tspan></text>
 <text
   class="SVGTextShape"
   id="text466"><tspan
     class="TextParagraph"
     font-family="Liberation Sans, sans-serif"
     font-size="353px"
     font-weight="400"
     id="tspan464"><tspan
       class="TextPosition"
       x="982"
       y="6667"
       id="tspan462"><tspan
         fill="rgb(0,0,0)"
         stroke="none"
         style="white-space: pre"
         id="tspan460">15</tspan></tspan></tspan></text>
 <text
   class="SVGTextShape"
   id="text474"><tspan
     class="TextParagraph"
     font-family="Liberation Sans, sans-serif"
     font-size="353px"
     font-weight="400"
     id="tspan472"><tspan
       class="TextPosition"
       x="982"
       y="4610"
       id="tspan470"><tspan
         fill="rgb(0,0,0)"
         stroke="none"
         style="white-space: pre"
         id="tspan468">20</tspan></tspan></tspan></text>
 <text
   class="SVGTextShape"
   id="text482"><tspan
     class="TextParagraph"
     font-family="Liberation Sans, sans-serif"
     font-size="353px"
     font-weight="400"
     id="tspan480"><tspan
       class="TextPosition"
       x="982"
       y="2553"
       id="tspan478"><tspan
         fill="rgb(0,0,0)"
         stroke="none"
         style="white-space: pre"
         id="tspan476">25</tspan></tspan></tspan></text>
 <text
   class="SVGTextShape"
   id="text490"><tspan
     class="TextParagraph"
     font-family="Liberation Sans, sans-serif"
     font-size="459px"
     font-weight="400"
     id="tspan488"><tspan
       class="TextPosition"
       x="8378"
       y="866"
       id="tspan486"><tspan
         fill="rgb(0,0,0)"
         stroke="none"
         style="white-space: pre"
         id="tspan484">OnePlus Pad - Ratings by Heuristic and Rater</tspan></tspan></tspan></text>
 <text
   class="SVGTextShape"
   id="text504"><tspan
     class="TextParagraph"
     font-family="Liberation Sans, sans-serif"
     font-size="388px"
     font-weight="400"
     id="tspan496"><tspan
       class="TextPosition"
       x="10213"
       y="1496"
       id="tspan494"><tspan
         fill="rgb(0,0,0)"
         stroke="none"
         style="white-space: pre"
         id="tspan492">Morrison - Left bar</tspan></tspan></tspan><tspan
     class="TextParagraph"
     font-family="Liberation Sans, sans-serif"
     font-size="388px"
     font-weight="400"
     id="tspan502"><tspan
       class="TextPosition"
       x="10213"
       y="1946"
       id="tspan500"><tspan
         fill="rgb(0,0,0)"
         stroke="none"
         style="white-space: pre"
         id="tspan498">Fussell - Right bar</tspan></tspan></tspan></text>
 <path
   fill="rgb(180,228,150)"
   stroke="none"
   d="M 20822,8458 L 20716,8458 20716,8247 20927,8247 20927,8458 20822,8458 Z"
   id="path506" />
 <path
   fill="rgb(235,240,105)"
   stroke="none"
   d="M 20822,7960 L 20716,7960 20716,7749 20927,7749 20927,7960 20822,7960 Z"
   id="path508" />
 <path
   fill="rgb(255,193,112)"
   stroke="none"
   d="M 20822,7463 L 20716,7463 20716,7252 20927,7252 20927,7463 20822,7463 Z"
   id="path510" />
 <path
   fill="rgb(255,102,102)"
   stroke="none"
   d="M 20822,6965 L 20716,6965 20716,6754 20927,6754 20927,6965 20822,6965 Z"
   id="path512" />
 <text
   class="SVGTextShape"
   id="text520"><tspan
     class="TextParagraph"
     font-family="Liberation Sans, sans-serif"
     font-size="353px"
     font-weight="400"
     id="tspan518"><tspan
       class="TextPosition"
       x="21027"
       y="6979"
       id="tspan516"><tspan
         fill="rgb(0,0,0)"
         stroke="none"
         style="white-space: pre"
         id="tspan514">N/A</tspan></tspan></tspan></text>
 <text
   class="SVGTextShape"
   id="text528"><tspan
     class="TextParagraph"
     font-family="Liberation Sans, sans-serif"
     font-size="353px"
     font-weight="400"
     id="tspan526"><tspan
       class="TextPosition"
       x="21027"
       y="7477"
       id="tspan524"><tspan
         fill="rgb(0,0,0)"
         stroke="none"
         style="white-space: pre"
         id="tspan522">No</tspan></tspan></tspan></text>
 <text
   class="SVGTextShape"
   id="text536"><tspan
     class="TextParagraph"
     font-family="Liberation Sans, sans-serif"
     font-size="353px"
     font-weight="400"
     id="tspan534"><tspan
       class="TextPosition"
       x="21027"
       y="7974"
       id="tspan532"><tspan
         fill="rgb(0,0,0)"
         stroke="none"
         style="white-space: pre"
         id="tspan530">Somewhat</tspan></tspan></tspan></text>
 <text
   class="SVGTextShape"
   id="text544"><tspan
     class="TextParagraph"
     font-family="Liberation Sans, sans-serif"
     font-size="353px"
     font-weight="400"
     id="tspan542"><tspan
       class="TextPosition"
       x="21027"
       y="8472"
       id="tspan540"><tspan
         fill="rgb(0,0,0)"
         stroke="none"
         style="white-space: pre"
         id="tspan538">Yes</tspan></tspan></tspan></text>
 <text
   class="SVGTextShape"
   transform="rotate(-90 585 9260)"
   id="text552"><tspan
     class="TextParagraph"
     font-family="Liberation Sans, sans-serif"
     font-size="318px"
     font-weight="400"
     id="tspan550"><tspan
       class="TextPosition"
       x="585"
       y="9260"
       id="tspan548"><tspan
         fill="rgb(0,0,0)"
         stroke="none"
         style="white-space: pre"
         id="tspan546"># Ratings</tspan></tspan></tspan></text>
</svg>
