<?xml version="1.0" encoding="UTF-8"?>
<!DOCTYPE svg PUBLIC "-//W3C//DTD SVG 1.1//EN" "http://www.w3.org/Graphics/SVG/1.1/DTD/svg11.dtd">
<svg width="102mm" height="102mm" viewBox="0 0 10200 10200" version="1.1" xmlns="http://www.w3.org/2000/svg" xmlns:xlink="http://www.w3.org/1999/xlink" stroke-width="28.222" stroke-linejoin="round" xml:space="preserve">
 <path fill="rgb(255,255,255)" stroke="none" d="M 5067,10147 L -13,10147 -13,-13 10147,-13 10147,10147 5067,10147 Z"/>
 <path fill="rgb(180,228,150)" stroke="none" d="M 5022,1955 C 4603,1955 4186,2021 3787,2150 3388,2280 3012,2471 2673,2718 2334,2964 2035,3263 1789,3602 1542,3941 1351,4317 1221,4716 1092,5114 1026,5531 1026,5950 1026,6369 1092,6786 1221,7185 1351,7584 1542,7960 1789,8299 2035,8638 2334,8937 2673,9183 3012,9430 3388,9621 3787,9751 4149,9869 4526,9934 4907,9945 L 4945,8613 C 4691,8606 4440,8562 4199,8484 3933,8398 3682,8270 3456,8105 3230,7941 3031,7742 2867,7516 2702,7290 2574,7039 2488,6773 2402,6507 2358,6230 2358,5950 2358,5670 2402,5393 2488,5127 2574,4862 2702,4611 2867,4385 3031,4159 3230,3960 3456,3796 3682,3631 3933,3503 4199,3417 4465,3331 4742,3287 5022,3287 L 5022,1955 Z"/>
 <path fill="none" stroke="rgb(255,255,255)" stroke-width="102" stroke-linejoin="round" d="M 5022,1955 C 4603,1955 4186,2021 3787,2150 3388,2280 3012,2471 2673,2718 2334,2964 2035,3263 1789,3602 1542,3941 1351,4317 1221,4716 1092,5114 1026,5531 1026,5950 1026,6369 1092,6786 1221,7185 1351,7584 1542,7960 1789,8299 2035,8638 2334,8937 2673,9183 3012,9430 3388,9621 3787,9751 4149,9869 4526,9934 4907,9945 L 4945,8613 C 4691,8606 4440,8562 4199,8484 3933,8398 3682,8270 3456,8105 3230,7941 3031,7742 2867,7516 2702,7290 2574,7039 2488,6773 2402,6507 2358,6230 2358,5950 2358,5670 2402,5393 2488,5127 2574,4862 2702,4611 2867,4385 3031,4159 3230,3960 3456,3796 3682,3631 3933,3503 4199,3417 4465,3331 4742,3287 5022,3287 L 5022,1955 Z"/>
 <path fill="rgb(235,240,105)" stroke="none" d="M 4907,9945 C 4945,9946 4984,9947 5022,9947 5440,9947 5857,9880 6256,9751 6655,9621 7031,9430 7370,9183 7709,8937 8008,8638 8254,8299 8261,8290 8268,8280 8274,8271 L 7190,7497 C 7185,7504 7181,7510 7176,7516 7012,7742 6813,7941 6587,8105 6361,8270 6110,8398 5844,8484 5578,8570 5301,8614 5022,8614 4996,8614 4971,8614 4945,8613 L 4907,9945 Z"/>
 <path fill="none" stroke="rgb(255,255,255)" stroke-width="102" stroke-linejoin="round" d="M 4907,9945 C 4945,9946 4984,9947 5022,9947 5440,9947 5857,9880 6256,9751 6655,9621 7031,9430 7370,9183 7709,8937 8008,8638 8254,8299 8261,8290 8268,8280 8274,8271 L 7190,7497 C 7185,7504 7181,7510 7176,7516 7012,7742 6813,7941 6587,8105 6361,8270 6110,8398 5844,8484 5578,8570 5301,8614 5022,8614 4996,8614 4971,8614 4945,8613 L 4907,9945 Z"/>
 <path fill="rgb(255,193,112)" stroke="none" d="M 8274,8271 C 8511,7939 8696,7573 8822,7185 8951,6786 9018,6369 9018,5950 9018,5700 8994,5451 8948,5206 L 7639,5454 C 7670,5617 7685,5783 7685,5950 7685,6230 7641,6507 7555,6773 7471,7032 7348,7276 7190,7497 L 8274,8271 Z"/>
 <path fill="none" stroke="rgb(255,255,255)" stroke-width="102" stroke-linejoin="round" d="M 8274,8271 C 8511,7939 8696,7573 8822,7185 8951,6786 9018,6369 9018,5950 9018,5700 8994,5451 8948,5206 L 7639,5454 C 7670,5617 7685,5783 7685,5950 7685,6230 7641,6507 7555,6773 7471,7032 7348,7276 7190,7497 L 8274,8271 Z"/>
 <path fill="rgb(255,102,102)" stroke="none" d="M 8948,5206 C 8916,5041 8874,4877 8822,4716 8692,4317 8501,3941 8254,3602 8008,3263 7709,2964 7370,2718 7031,2471 6655,2280 6256,2150 5857,2021 5440,1955 5022,1955 L 5022,3287 C 5301,3287 5578,3331 5844,3417 6110,3503 6361,3631 6587,3796 6813,3960 7012,4159 7176,4385 7341,4611 7469,4862 7555,5127 7590,5234 7618,5343 7639,5454 L 8948,5206 Z"/>
 <path fill="none" stroke="rgb(255,255,255)" stroke-width="102" stroke-linejoin="round" d="M 8948,5206 C 8916,5041 8874,4877 8822,4716 8692,4317 8501,3941 8254,3602 8008,3263 7709,2964 7370,2718 7031,2471 6655,2280 6256,2150 5857,2021 5440,1955 5022,1955 L 5022,3287 C 5301,3287 5578,3331 5844,3417 6110,3503 6361,3631 6587,3796 6813,3960 7012,4159 7176,4385 7341,4611 7469,4862 7555,5127 7590,5234 7618,5343 7639,5454 L 8948,5206 Z"/>
 <path fill="rgb(180,228,150)" stroke="none" d="M 5022,3287 C 4742,3287 4465,3331 4199,3417 3933,3503 3682,3631 3456,3796 3230,3960 3031,4159 2867,4385 2702,4611 2574,4862 2488,5127 2402,5393 2358,5670 2358,5950 2358,6230 2402,6507 2488,6773 2574,7039 2702,7290 2867,7516 3031,7742 3230,7941 3456,8105 3682,8270 3933,8398 4199,8484 4465,8570 4742,8614 5022,8614 5098,8614 5175,8611 5251,8604 L 5136,7277 C 5098,7281 5060,7282 5022,7282 4882,7282 4743,7260 4610,7217 4477,7174 4352,7110 4239,7028 4126,6946 4026,6846 3944,6733 3862,6620 3798,6495 3755,6362 3712,6229 3690,6090 3690,5950 3690,5810 3712,5671 3755,5538 3798,5405 3862,5280 3944,5167 4026,5055 4126,4955 4239,4873 4352,4791 4477,4727 4610,4684 4743,4641 4882,4619 5022,4619 L 5022,3287 Z"/>
 <path fill="none" stroke="rgb(255,255,255)" stroke-width="102" stroke-linejoin="round" d="M 5022,3287 C 4742,3287 4465,3331 4199,3417 3933,3503 3682,3631 3456,3796 3230,3960 3031,4159 2867,4385 2702,4611 2574,4862 2488,5127 2402,5393 2358,5670 2358,5950 2358,6230 2402,6507 2488,6773 2574,7039 2702,7290 2867,7516 3031,7742 3230,7941 3456,8105 3682,8270 3933,8398 4199,8484 4465,8570 4742,8614 5022,8614 5098,8614 5175,8611 5251,8604 L 5136,7277 C 5098,7281 5060,7282 5022,7282 4882,7282 4743,7260 4610,7217 4477,7174 4352,7110 4239,7028 4126,6946 4026,6846 3944,6733 3862,6620 3798,6495 3755,6362 3712,6229 3690,6090 3690,5950 3690,5810 3712,5671 3755,5538 3798,5405 3862,5280 3944,5167 4026,5055 4126,4955 4239,4873 4352,4791 4477,4727 4610,4684 4743,4641 4882,4619 5022,4619 L 5022,3287 Z"/>
 <path fill="rgb(235,240,105)" stroke="none" d="M 5251,8604 C 5453,8587 5652,8546 5844,8484 5944,8451 6042,8413 6137,8369 L 5579,7160 C 5532,7182 5483,7201 5433,7217 5336,7248 5237,7268 5136,7277 L 5251,8604 Z"/>
 <path fill="none" stroke="rgb(255,255,255)" stroke-width="102" stroke-linejoin="round" d="M 5251,8604 C 5453,8587 5652,8546 5844,8484 5944,8451 6042,8413 6137,8369 L 5579,7160 C 5532,7182 5483,7201 5433,7217 5336,7248 5237,7268 5136,7277 L 5251,8604 Z"/>
 <path fill="rgb(255,193,112)" stroke="none" d="M 6137,8369 C 6295,8296 6446,8208 6587,8105 6813,7941 7012,7742 7176,7516 7341,7290 7469,7039 7555,6773 7582,6691 7605,6606 7623,6521 L 6322,6236 C 6313,6278 6301,6320 6288,6362 6245,6495 6181,6620 6099,6733 6017,6846 5917,6946 5804,7028 5734,7079 5658,7123 5579,7160 L 6137,8369 Z"/>
 <path fill="none" stroke="rgb(255,255,255)" stroke-width="102" stroke-linejoin="round" d="M 6137,8369 C 6295,8296 6446,8208 6587,8105 6813,7941 7012,7742 7176,7516 7341,7290 7469,7039 7555,6773 7582,6691 7605,6606 7623,6521 L 6322,6236 C 6313,6278 6301,6320 6288,6362 6245,6495 6181,6620 6099,6733 6017,6846 5917,6946 5804,7028 5734,7079 5658,7123 5579,7160 L 6137,8369 Z"/>
 <path fill="rgb(255,102,102)" stroke="none" d="M 7623,6521 C 7665,6334 7685,6142 7685,5950 7685,5670 7641,5393 7555,5127 7469,4862 7341,4611 7176,4385 7012,4159 6813,3960 6587,3796 6361,3631 6110,3503 5844,3417 5578,3331 5301,3287 5022,3287 L 5022,3287 5022,4619 5022,4619 C 5161,4619 5300,4641 5433,4684 5566,4727 5691,4791 5804,4873 5917,4955 6017,5055 6099,5167 6181,5280 6245,5405 6288,5538 6331,5671 6353,5810 6353,5950 6353,6046 6343,6142 6322,6236 L 7623,6521 Z"/>
 <path fill="none" stroke="rgb(255,255,255)" stroke-width="102" stroke-linejoin="round" d="M 7623,6521 C 7665,6334 7685,6142 7685,5950 7685,5670 7641,5393 7555,5127 7469,4862 7341,4611 7176,4385 7012,4159 6813,3960 6587,3796 6361,3631 6110,3503 5844,3417 5578,3331 5301,3287 5022,3287 L 5022,3287 5022,4619 5022,4619 C 5161,4619 5300,4641 5433,4684 5566,4727 5691,4791 5804,4873 5917,4955 6017,5055 6099,5167 6181,5280 6245,5405 6288,5538 6331,5671 6353,5810 6353,5950 6353,6046 6343,6142 6322,6236 L 7623,6521 Z"/>
 <text class="SVGTextShape"><tspan class="TextParagraph" font-family="Liberation Sans, sans-serif" font-size="353px" font-weight="400"><tspan class="TextPosition" x="1507" y="6023"><tspan fill="rgb(0,0,0)" stroke="none" style="white-space: pre">54</tspan></tspan></tspan></text>
 <text class="SVGTextShape"><tspan class="TextParagraph" font-family="Liberation Sans, sans-serif" font-size="353px" font-weight="400"><tspan class="TextPosition" x="6319" y="9054"><tspan fill="rgb(0,0,0)" stroke="none" style="white-space: pre">17</tspan></tspan></tspan></text>
 <text class="SVGTextShape"><tspan class="TextParagraph" font-family="Liberation Sans, sans-serif" font-size="353px" font-weight="400"><tspan class="TextPosition" x="8090" y="6785"><tspan fill="rgb(0,0,0)" stroke="none" style="white-space: pre">14</tspan></tspan></tspan></text>
 <text class="SVGTextShape"><tspan class="TextParagraph" font-family="Liberation Sans, sans-serif" font-size="353px" font-weight="400"><tspan class="TextPosition" x="6961" y="3506"><tspan fill="rgb(0,0,0)" stroke="none" style="white-space: pre">24</tspan></tspan></tspan></text>
 <text class="SVGTextShape"><tspan class="TextParagraph" font-family="Liberation Sans, sans-serif" font-size="353px" font-weight="400"><tspan class="TextPosition" x="2841" y="6157"><tspan fill="rgb(0,0,0)" stroke="none" style="white-space: pre">56</tspan></tspan></tspan></text>
 <text class="SVGTextShape"><tspan class="TextParagraph" font-family="Liberation Sans, sans-serif" font-size="353px" font-weight="400"><tspan class="TextPosition" x="5442" y="8002"><tspan fill="rgb(0,0,0)" stroke="none" style="white-space: pre">6</tspan></tspan></tspan></text>
 <text class="SVGTextShape"><tspan class="TextParagraph" font-family="Liberation Sans, sans-serif" font-size="353px" font-weight="400"><tspan class="TextPosition" x="6394" y="7323"><tspan fill="rgb(0,0,0)" stroke="none" style="white-space: pre">16</tspan></tspan></tspan></text>
 <text class="SVGTextShape"><tspan class="TextParagraph" font-family="Liberation Sans, sans-serif" font-size="353px" font-weight="400"><tspan class="TextPosition" x="6394" y="4819"><tspan fill="rgb(0,0,0)" stroke="none" style="white-space: pre">31</tspan></tspan></tspan></text>
 <text class="SVGTextShape"><tspan class="TextParagraph" font-family="Liberation Sans, sans-serif" font-size="459px" font-weight="400"><tspan class="TextPosition" x="2939" y="763"><tspan fill="rgb(0,0,0)" stroke="none" style="white-space: pre">OnePlus Pad - Overall Scores</tspan></tspan></tspan></text>
 <text class="SVGTextShape"><tspan class="TextParagraph" font-family="Liberation Sans, sans-serif" font-size="388px" font-weight="400"><tspan class="TextPosition" x="3282" y="1293"><tspan fill="rgb(0,0,0)" stroke="none" style="white-space: pre">Morrison - Outer ring</tspan></tspan></tspan><tspan class="TextParagraph" font-family="Liberation Sans, sans-serif" font-size="388px" font-weight="400"><tspan class="TextPosition" x="3468" y="1743"><tspan fill="rgb(0,0,0)" stroke="none" style="white-space: pre">Fussell - Inner ring</tspan></tspan></tspan></text>
</svg>